<svg xmlns="http://www.w3.org/2000/svg" xmlns:xlink="http://www.w3.org/1999/xlink" width="1000" zoomAndPan="magnify" viewBox="0 0 750 749.999995" height="1000" preserveAspectRatio="xMidYMid meet" version="1.0"><defs><clipPath id="0f93f3954c"><path d="M 93 93 L 653 93 L 653 653 L 93 653 Z M 93 93 " clip-rule="nonzero"/></clipPath><clipPath id="5219f0fbc2"><path d="M -150.746094 375 L 374.808594 -150.558594 L 900.367188 375 L 374.808594 900.558594 Z M -150.746094 375 " clip-rule="nonzero"/></clipPath><clipPath id="5e58b2eb6e"><path d="M -150.746094 375 L 374.808594 -150.558594 L 900.367188 375 L 374.808594 900.558594 Z M -150.746094 375 " clip-rule="nonzero"/></clipPath></defs><g clip-path="url(#0f93f3954c)"><g clip-path="url(#5219f0fbc2)"><g clip-path="url(#5e58b2eb6e)"><path fill="#ffb000" d="M 110.894531 112.167969 C 109.496094 113.613281 108.167969 115.121094 106.914062 116.691406 C 105.660156 118.265625 104.488281 119.898438 103.394531 121.585938 C 102.300781 123.273438 101.292969 125.011719 100.371094 126.800781 C 99.449219 128.585938 98.617188 130.414062 97.875 132.285156 C 97.128906 134.152344 96.480469 136.054688 95.925781 137.988281 C 95.367188 139.921875 94.90625 141.875 94.542969 143.855469 C 94.179688 145.832031 93.914062 147.824219 93.746094 149.828125 C 93.574219 151.832031 93.507812 153.839844 93.535156 155.851562 C 93.5625 157.863281 93.691406 159.867188 93.914062 161.867188 C 94.140625 163.867188 94.464844 165.847656 94.882812 167.816406 C 95.304688 169.78125 95.820312 171.726562 96.429688 173.640625 C 97.039062 175.558594 97.742188 177.441406 98.539062 179.289062 C 99.335938 181.132812 100.21875 182.9375 101.191406 184.699219 C 102.164062 186.460938 103.21875 188.167969 104.359375 189.824219 C 105.5 191.484375 106.71875 193.078125 108.019531 194.617188 C 109.316406 196.152344 110.683594 197.625 112.125 199.027344 L 285.925781 372.828125 L 112.125 546.628906 C 111.398438 547.335938 110.6875 548.0625 109.996094 548.804688 C 109.304688 549.546875 108.632812 550.304688 107.976562 551.082031 C 107.324219 551.855469 106.691406 552.648438 106.074219 553.457031 C 105.460938 554.261719 104.867188 555.085938 104.292969 555.921875 C 103.71875 556.757812 103.164062 557.609375 102.632812 558.472656 C 102.101562 559.335938 101.589844 560.214844 101.101562 561.101562 C 100.613281 561.992188 100.144531 562.894531 99.703125 563.804688 C 99.257812 564.71875 98.835938 565.640625 98.4375 566.574219 C 98.039062 567.507812 97.664062 568.449219 97.3125 569.402344 C 96.960938 570.355469 96.632812 571.316406 96.332031 572.28125 C 96.027344 573.25 95.746094 574.226562 95.492188 575.207031 C 95.234375 576.191406 95.003906 577.179688 94.796875 578.171875 C 94.589844 579.164062 94.410156 580.164062 94.25 581.164062 C 94.09375 582.167969 93.960938 583.175781 93.855469 584.183594 C 93.746094 585.191406 93.664062 586.203125 93.605469 587.214844 C 93.550781 588.230469 93.515625 589.242188 93.507812 590.257812 C 93.503906 591.273438 93.519531 592.289062 93.5625 593.300781 C 93.605469 594.316406 93.675781 595.328125 93.769531 596.339844 C 93.859375 597.347656 93.980469 598.355469 94.121094 599.359375 C 94.265625 600.367188 94.433594 601.367188 94.625 602.363281 C 94.820312 603.359375 95.035156 604.347656 95.277344 605.335938 C 95.519531 606.320312 95.785156 607.300781 96.074219 608.273438 C 96.367188 609.246094 96.679688 610.210938 97.019531 611.164062 C 97.355469 612.121094 97.71875 613.070312 98.101562 614.007812 C 98.488281 614.949219 98.894531 615.878906 99.328125 616.796875 C 99.757812 617.714844 100.210938 618.621094 100.6875 619.519531 C 101.164062 620.414062 101.660156 621.296875 102.183594 622.171875 C 102.703125 623.042969 103.242188 623.898438 103.804688 624.746094 C 104.367188 625.589844 104.949219 626.417969 105.554688 627.234375 C 106.15625 628.050781 106.78125 628.851562 107.421875 629.636719 C 108.066406 630.421875 108.726562 631.191406 109.410156 631.941406 C 110.089844 632.695312 110.789062 633.429688 111.507812 634.148438 C 112.226562 634.863281 112.960938 635.5625 113.710938 636.246094 C 114.464844 636.925781 115.234375 637.589844 116.019531 638.230469 C 116.804688 638.875 117.605469 639.5 118.417969 640.101562 C 119.234375 640.703125 120.066406 641.289062 120.910156 641.851562 C 121.753906 642.414062 122.613281 642.953125 123.484375 643.472656 C 124.355469 643.992188 125.242188 644.492188 126.136719 644.96875 C 127.03125 645.441406 127.941406 645.898438 128.859375 646.328125 C 129.777344 646.757812 130.707031 647.167969 131.644531 647.550781 C 132.585938 647.9375 133.53125 648.296875 134.488281 648.636719 C 135.445312 648.972656 136.410156 649.289062 137.382812 649.578125 C 138.355469 649.867188 139.335938 650.136719 140.320312 650.375 C 141.304688 650.617188 142.296875 650.835938 143.292969 651.027344 C 144.289062 651.222656 145.289062 651.390625 146.292969 651.53125 C 147.300781 651.675781 148.304688 651.792969 149.316406 651.886719 C 150.328125 651.980469 151.339844 652.046875 152.355469 652.089844 C 153.367188 652.132812 154.382812 652.152344 155.398438 652.144531 C 156.410156 652.136719 157.425781 652.105469 158.4375 652.046875 C 159.453125 651.992188 160.460938 651.910156 161.472656 651.800781 C 162.480469 651.695312 163.488281 651.5625 164.488281 651.402344 C 165.492188 651.246094 166.488281 651.066406 167.484375 650.859375 C 168.476562 650.652344 169.464844 650.417969 170.445312 650.164062 C 171.429688 649.910156 172.402344 649.628906 173.371094 649.324219 C 174.339844 649.019531 175.300781 648.691406 176.253906 648.339844 C 177.203125 647.988281 178.148438 647.613281 179.082031 647.214844 C 180.011719 646.816406 180.9375 646.398438 181.847656 645.953125 C 182.761719 645.507812 183.664062 645.042969 184.550781 644.554688 C 185.441406 644.066406 186.316406 643.554688 187.183594 643.023438 C 188.046875 642.492188 188.898438 641.9375 189.734375 641.363281 C 190.570312 640.789062 191.390625 640.195312 192.199219 639.582031 C 193.007812 638.964844 193.796875 638.332031 194.574219 637.675781 C 195.351562 637.023438 196.109375 636.347656 196.851562 635.65625 C 197.59375 634.964844 198.320312 634.257812 199.027344 633.527344 L 372.828125 459.726562 L 546.628906 633.527344 C 547.335938 634.257812 548.0625 634.964844 548.804688 635.65625 C 549.546875 636.347656 550.304688 637.023438 551.082031 637.675781 C 551.855469 638.332031 552.648438 638.964844 553.457031 639.582031 C 554.261719 640.195312 555.085938 640.789062 555.921875 641.363281 C 556.757812 641.9375 557.609375 642.492188 558.472656 643.023438 C 559.335938 643.554688 560.214844 644.066406 561.101562 644.554688 C 561.992188 645.042969 562.894531 645.507812 563.804688 645.953125 C 564.71875 646.398438 565.640625 646.816406 566.574219 647.214844 C 567.507812 647.613281 568.449219 647.988281 569.402344 648.339844 C 570.355469 648.691406 571.316406 649.019531 572.28125 649.324219 C 573.25 649.628906 574.226562 649.910156 575.207031 650.164062 C 576.191406 650.417969 577.179688 650.652344 578.171875 650.859375 C 579.164062 651.0625 580.164062 651.246094 581.164062 651.402344 C 582.167969 651.5625 583.175781 651.695312 584.183594 651.800781 C 585.191406 651.910156 586.203125 651.992188 587.214844 652.046875 C 588.230469 652.105469 589.242188 652.136719 590.257812 652.144531 C 591.273438 652.152344 592.289062 652.132812 593.300781 652.089844 C 594.316406 652.046875 595.328125 651.980469 596.339844 651.886719 C 597.347656 651.792969 598.355469 651.675781 599.359375 651.53125 C 600.367188 651.390625 601.367188 651.222656 602.363281 651.027344 C 603.359375 650.835938 604.347656 650.617188 605.335938 650.375 C 606.320312 650.136719 607.300781 649.867188 608.273438 649.578125 C 609.246094 649.289062 610.210938 648.972656 611.164062 648.636719 C 612.121094 648.296875 613.070312 647.9375 614.007812 647.550781 C 614.949219 647.167969 615.878906 646.757812 616.796875 646.328125 C 617.714844 645.894531 618.621094 645.441406 619.519531 644.96875 C 620.414062 644.492188 621.296875 643.992188 622.171875 643.472656 C 623.042969 642.953125 623.898438 642.414062 624.746094 641.851562 C 625.589844 641.289062 626.417969 640.703125 627.234375 640.101562 C 628.050781 639.5 628.851562 638.875 629.636719 638.230469 C 630.421875 637.589844 631.191406 636.925781 631.941406 636.246094 C 632.695312 635.5625 633.429688 634.863281 634.148438 634.148438 C 634.863281 633.429688 635.5625 632.695312 636.246094 631.941406 C 636.925781 631.191406 637.589844 630.421875 638.230469 629.636719 C 638.875 628.851562 639.5 628.050781 640.101562 627.234375 C 640.703125 626.417969 641.289062 625.589844 641.851562 624.746094 C 642.414062 623.898438 642.953125 623.042969 643.472656 622.171875 C 643.992188 621.296875 644.492188 620.414062 644.96875 619.519531 C 645.441406 618.621094 645.898438 617.714844 646.328125 616.796875 C 646.757812 615.878906 647.167969 614.949219 647.550781 614.007812 C 647.9375 613.070312 648.296875 612.121094 648.636719 611.164062 C 648.972656 610.207031 649.289062 609.246094 649.578125 608.273438 C 649.871094 607.300781 650.136719 606.320312 650.378906 605.335938 C 650.617188 604.347656 650.835938 603.359375 651.027344 602.363281 C 651.222656 601.367188 651.390625 600.367188 651.53125 599.359375 C 651.675781 598.355469 651.792969 597.347656 651.886719 596.339844 C 651.980469 595.328125 652.046875 594.316406 652.089844 593.300781 C 652.132812 592.289062 652.152344 591.273438 652.144531 590.257812 C 652.136719 589.242188 652.105469 588.230469 652.046875 587.214844 C 651.992188 586.203125 651.910156 585.191406 651.800781 584.183594 C 651.695312 583.175781 651.5625 582.167969 651.402344 581.164062 C 651.246094 580.164062 651.066406 579.164062 650.859375 578.171875 C 650.652344 577.179688 650.417969 576.191406 650.164062 575.207031 C 649.910156 574.226562 649.628906 573.25 649.324219 572.28125 C 649.019531 571.316406 648.691406 570.355469 648.339844 569.402344 C 647.988281 568.449219 647.613281 567.507812 647.214844 566.574219 C 646.816406 565.640625 646.398438 564.71875 645.953125 563.804688 C 645.507812 562.894531 645.042969 561.992188 644.554688 561.101562 C 644.066406 560.214844 643.554688 559.335938 643.023438 558.472656 C 642.492188 557.609375 641.9375 556.757812 641.363281 555.921875 C 640.789062 555.085938 640.195312 554.261719 639.582031 553.457031 C 638.964844 552.648438 638.332031 551.855469 637.675781 551.082031 C 637.023438 550.304688 636.347656 549.546875 635.65625 548.804688 C 634.964844 548.0625 634.257812 547.335938 633.527344 546.628906 L 459.726562 372.828125 L 633.527344 199.027344 C 634.257812 198.320312 634.964844 197.59375 635.65625 196.851562 C 636.347656 196.109375 637.023438 195.351562 637.675781 194.574219 C 638.332031 193.796875 638.964844 193.007812 639.582031 192.199219 C 640.195312 191.390625 640.789062 190.570312 641.363281 189.734375 C 641.9375 188.898438 642.492188 188.046875 643.023438 187.183594 C 643.554688 186.316406 644.066406 185.441406 644.554688 184.550781 C 645.042969 183.664062 645.507812 182.761719 645.953125 181.847656 C 646.398438 180.9375 646.816406 180.011719 647.214844 179.082031 C 647.613281 178.148438 647.988281 177.203125 648.339844 176.253906 C 648.691406 175.300781 649.019531 174.339844 649.324219 173.371094 C 649.628906 172.402344 649.910156 171.429688 650.164062 170.445312 C 650.417969 169.464844 650.652344 168.476562 650.859375 167.484375 C 651.066406 166.488281 651.246094 165.492188 651.402344 164.488281 C 651.5625 163.488281 651.695312 162.480469 651.800781 161.472656 C 651.910156 160.460938 651.992188 159.453125 652.046875 158.4375 C 652.105469 157.425781 652.136719 156.410156 652.144531 155.398438 C 652.152344 154.382812 652.132812 153.367188 652.089844 152.351562 C 652.046875 151.339844 651.980469 150.328125 651.886719 149.316406 C 651.792969 148.304688 651.675781 147.300781 651.53125 146.292969 C 651.390625 145.289062 651.222656 144.289062 651.027344 143.292969 C 650.835938 142.296875 650.617188 141.304688 650.375 140.320312 C 650.136719 139.335938 649.867188 138.355469 649.578125 137.382812 C 649.289062 136.410156 648.972656 135.445312 648.636719 134.488281 C 648.296875 133.53125 647.9375 132.585938 647.550781 131.644531 C 647.167969 130.707031 646.757812 129.777344 646.328125 128.859375 C 645.898438 127.941406 645.441406 127.03125 644.96875 126.136719 C 644.492188 125.242188 643.992188 124.355469 643.472656 123.484375 C 642.953125 122.613281 642.414062 121.753906 641.851562 120.910156 C 641.289062 120.066406 640.707031 119.234375 640.101562 118.417969 C 639.5 117.605469 638.875 116.804688 638.230469 116.019531 C 637.589844 115.234375 636.925781 114.464844 636.246094 113.710938 C 635.5625 112.960938 634.863281 112.226562 634.148438 111.507812 C 633.429688 110.789062 632.695312 110.089844 631.941406 109.410156 C 631.191406 108.726562 630.421875 108.066406 629.636719 107.421875 C 628.851562 106.78125 628.050781 106.15625 627.234375 105.554688 C 626.417969 104.949219 625.589844 104.367188 624.746094 103.804688 C 623.898438 103.242188 623.042969 102.703125 622.171875 102.183594 C 621.296875 101.660156 620.414062 101.164062 619.519531 100.6875 C 618.621094 100.210938 617.714844 99.757812 616.796875 99.328125 C 615.878906 98.894531 614.949219 98.488281 614.007812 98.101562 C 613.070312 97.71875 612.121094 97.355469 611.164062 97.019531 C 610.210938 96.679688 609.246094 96.367188 608.273438 96.074219 C 607.300781 95.785156 606.320312 95.519531 605.335938 95.277344 C 604.347656 95.035156 603.359375 94.820312 602.363281 94.625 C 601.367188 94.433594 600.367188 94.265625 599.359375 94.121094 C 598.355469 93.980469 597.347656 93.859375 596.339844 93.769531 C 595.328125 93.675781 594.316406 93.605469 593.300781 93.5625 C 592.289062 93.519531 591.273438 93.503906 590.257812 93.507812 C 589.242188 93.515625 588.230469 93.550781 587.214844 93.605469 C 586.203125 93.664062 585.191406 93.746094 584.183594 93.855469 C 583.175781 93.960938 582.167969 94.09375 581.164062 94.25 C 580.164062 94.410156 579.164062 94.589844 578.171875 94.796875 C 577.179688 95.003906 576.191406 95.234375 575.207031 95.492188 C 574.226562 95.746094 573.25 96.027344 572.28125 96.332031 C 571.316406 96.632812 570.355469 96.960938 569.402344 97.3125 C 568.449219 97.664062 567.507812 98.039062 566.574219 98.4375 C 565.640625 98.835938 564.71875 99.257812 563.804688 99.703125 C 562.894531 100.144531 561.992188 100.613281 561.101562 101.101562 C 560.214844 101.589844 559.335938 102.101562 558.472656 102.632812 C 557.609375 103.164062 556.757812 103.71875 555.921875 104.292969 C 555.085938 104.867188 554.261719 105.460938 553.457031 106.074219 C 552.648438 106.691406 551.855469 107.324219 551.082031 107.976562 C 550.304688 108.632812 549.546875 109.304688 548.804688 109.996094 C 548.0625 110.6875 547.335938 111.398438 546.628906 112.125 L 372.828125 285.925781 L 199.027344 112.125 C 198.3125 111.390625 197.582031 110.675781 196.832031 109.980469 C 196.082031 109.28125 195.3125 108.605469 194.53125 107.945312 C 193.746094 107.285156 192.949219 106.648438 192.132812 106.027344 C 191.316406 105.410156 190.484375 104.8125 189.640625 104.234375 C 188.792969 103.65625 187.933594 103.101562 187.0625 102.566406 C 186.1875 102.03125 185.300781 101.519531 184.402344 101.027344 C 183.503906 100.539062 182.59375 100.070312 181.671875 99.625 C 180.75 99.183594 179.816406 98.761719 178.875 98.363281 C 177.929688 97.964844 176.976562 97.589844 176.015625 97.238281 C 175.054688 96.890625 174.082031 96.5625 173.105469 96.261719 C 172.125 95.960938 171.140625 95.683594 170.148438 95.429688 C 169.15625 95.175781 168.160156 94.949219 167.15625 94.746094 C 166.152344 94.542969 165.144531 94.367188 164.132812 94.214844 C 163.117188 94.0625 162.101562 93.933594 161.085938 93.832031 C 160.066406 93.730469 159.042969 93.652344 158.023438 93.601562 C 157 93.554688 155.976562 93.527344 154.953125 93.527344 C 153.929688 93.527344 152.90625 93.554688 151.882812 93.605469 C 150.859375 93.65625 149.839844 93.734375 148.820312 93.835938 C 147.800781 93.941406 146.785156 94.070312 145.773438 94.222656 C 144.761719 94.375 143.753906 94.554688 142.75 94.757812 C 141.746094 94.960938 140.75 95.191406 139.757812 95.445312 C 138.765625 95.699219 137.78125 95.976562 136.800781 96.277344 C 135.824219 96.582031 134.855469 96.910156 133.894531 97.261719 C 132.929688 97.613281 131.980469 97.988281 131.035156 98.386719 C 130.09375 98.785156 129.160156 99.207031 128.238281 99.652344 C 127.316406 100.097656 126.40625 100.566406 125.507812 101.058594 C 124.609375 101.546875 123.722656 102.0625 122.851562 102.597656 C 121.976562 103.132812 121.121094 103.6875 120.273438 104.265625 C 119.429688 104.84375 118.601562 105.445312 117.785156 106.0625 C 116.96875 106.683594 116.171875 107.324219 115.386719 107.984375 C 114.605469 108.644531 113.839844 109.320312 113.089844 110.019531 C 112.339844 110.71875 111.609375 111.433594 110.894531 112.167969 Z M 110.894531 112.167969 " fill-opacity="1" fill-rule="nonzero"/></g></g></g></svg>