<svg xmlns="http://www.w3.org/2000/svg" xmlns:xlink="http://www.w3.org/1999/xlink" width="1000" zoomAndPan="magnify" viewBox="0 0 750 749.999995" height="1000" preserveAspectRatio="xMidYMid meet" version="1.0"><defs><clipPath id="b1a237598b"><path d="M 0 20.457031 L 750 20.457031 L 750 729.203125 L 0 729.203125 Z M 0 20.457031 " clip-rule="nonzero"/></clipPath><clipPath id="5a36eef365"><path d="M 204.847656 220 L 538 220 L 538 554 L 204.847656 554 Z M 204.847656 220 " clip-rule="nonzero"/></clipPath></defs><g clip-path="url(#b1a237598b)"><path fill="#004225" d="M 0.453125 374.925781 C 0.453125 180.011719 160.011719 20.457031 354.921875 20.457031 L 395.074219 20.457031 C 589.988281 20.457031 749.546875 180.011719 749.546875 374.925781 C 749.546875 569.839844 589.988281 729.394531 395.074219 729.394531 L 354.921875 729.394531 C 160.011719 729.542969 0.453125 569.988281 0.453125 374.925781 Z M 0.453125 374.925781 " fill-opacity="1" fill-rule="nonzero"/></g><path fill="#f5f5dc" d="M 595.792969 191.679688 C 591.609375 187.503906 584.84375 187.503906 580.667969 191.679688 L 386.683594 385.65625 L 333.152344 332.128906 C 328.976562 327.953125 322.203125 327.953125 318.027344 332.136719 C 313.851562 336.3125 313.851562 343.082031 318.027344 347.261719 L 379.121094 408.351562 C 381.210938 410.4375 383.945312 411.488281 386.683594 411.488281 C 389.421875 411.488281 392.152344 410.445312 394.242188 408.351562 L 595.792969 206.800781 C 599.96875 202.621094 599.96875 195.851562 595.792969 191.679688 Z M 595.792969 191.679688 " fill-opacity="1" fill-rule="nonzero"/><g clip-path="url(#5a36eef365)"><path fill="#f5f5dc" d="M 513.851562 323.273438 C 508.308594 325.324219 505.484375 331.476562 507.527344 337.023438 C 513.476562 353.101562 516.492188 370.039062 516.492188 387.359375 C 516.492188 467.382812 451.390625 532.484375 371.367188 532.484375 C 291.34375 532.484375 226.246094 467.382812 226.246094 387.359375 C 226.246094 307.335938 291.347656 242.234375 371.371094 242.234375 C 401.238281 242.234375 429.914062 251.230469 454.304688 268.25 C 459.152344 271.632812 465.820312 270.441406 469.195312 265.59375 C 472.578125 260.75 471.390625 254.082031 466.550781 250.699219 C 438.550781 231.167969 405.644531 220.839844 371.378906 220.839844 C 279.554688 220.839844 204.847656 295.539062 204.847656 387.359375 C 204.847656 479.179688 279.554688 553.875 371.371094 553.875 C 463.191406 553.875 537.898438 479.179688 537.898438 387.359375 C 537.898438 367.496094 534.429688 348.070312 527.597656 329.59375 C 525.542969 324.054688 519.402344 321.230469 513.851562 323.273438 Z M 513.851562 323.273438 " fill-opacity="1" fill-rule="nonzero"/></g></svg>