<svg xmlns="http://www.w3.org/2000/svg" xmlns:xlink="http://www.w3.org/1999/xlink" width="1000" zoomAndPan="magnify" viewBox="0 0 750 749.999995" height="1000" preserveAspectRatio="xMidYMid meet" version="1.0"><defs><clipPath id="e28ad9e794"><path d="M 6 25.84375 L 744 25.84375 L 744 724.09375 L 6 724.09375 Z M 6 25.84375 " clip-rule="nonzero"/></clipPath><clipPath id="ab9fc3c1a6"><path d="M 157.746094 141 L 591.996094 141 L 591.996094 580 L 157.746094 580 Z M 157.746094 141 " clip-rule="nonzero"/></clipPath></defs><g clip-path="url(#e28ad9e794)"><path fill="#004225" d="M 6.148438 374.925781 C 6.148438 182.976562 163.277344 25.84375 355.230469 25.84375 L 394.769531 25.84375 C 586.71875 25.84375 743.851562 182.976562 743.851562 374.925781 C 743.851562 566.875 586.71875 724.007812 394.769531 724.007812 L 355.230469 724.007812 C 163.277344 724.152344 6.148438 567.023438 6.148438 374.925781 Z M 6.148438 374.925781 " fill-opacity="1" fill-rule="nonzero"/></g><g clip-path="url(#ab9fc3c1a6)"><path fill="#f5f5dc" d="M 313.683594 494.5625 L 421.578125 458.582031 L 313.835938 458.582031 C 309.144531 458.582031 305.347656 454.789062 305.347656 450.09375 C 305.347656 445.402344 309.144531 441.609375 313.835938 441.609375 L 428.210938 441.609375 C 436.019531 441.609375 442.601562 447.210938 443.894531 454.925781 C 445.183594 462.699219 440.679688 470.136719 433.183594 472.605469 L 318.886719 510.726562 C 317.011719 511.292969 315.386719 511.535156 313.828125 511.535156 C 309.140625 511.535156 305.34375 507.734375 305.34375 503.046875 C 305.347656 498.410156 309.078125 494.636719 313.683594 494.5625 Z M 432.203125 544.164062 C 432.019531 544.355469 412.960938 562.875 375.84375 562.875 C 344.132812 562.875 325.617188 549.40625 320.722656 545.332031 L 433.3125 507.8125 C 437.753906 506.339844 440.160156 501.53125 438.6875 497.082031 C 437.195312 492.628906 432.402344 490.261719 427.945312 491.71875 L 313.652344 529.796875 C 308.414062 531.527344 304.398438 535.921875 303.15625 541.238281 C 301.898438 546.558594 303.519531 552.269531 307.367188 556.121094 C 308.328125 557.089844 331.386719 579.847656 375.84375 579.847656 C 420.234375 579.847656 443.292969 557.089844 444.253906 556.121094 C 447.535156 552.796875 447.503906 547.457031 444.203125 544.152344 C 440.894531 540.851562 435.519531 540.863281 432.203125 544.164062 Z M 374.753906 159.4375 C 302.925781 159.4375 244.480469 217.851562 244.480469 289.652344 C 244.480469 325.9375 263.359375 354 280.152344 378.980469 C 291.707031 396.074219 301.667969 410.839844 301.667969 423.101562 C 301.667969 427.796875 305.464844 431.589844 310.152344 431.589844 C 314.839844 431.589844 318.640625 427.792969 318.640625 423.101562 C 318.640625 405.644531 307.320312 388.878906 294.109375 369.296875 C 278.789062 346.542969 261.453125 320.757812 261.453125 289.652344 C 261.453125 227.210938 312.28125 176.410156 374.753906 176.410156 C 437.195312 176.410156 487.984375 227.210938 487.984375 289.652344 C 487.984375 320.804688 470.617188 346.609375 455.300781 369.363281 C 442.175781 388.804688 430.832031 405.601562 430.832031 423.101562 C 430.832031 427.796875 434.628906 431.589844 439.320312 431.589844 C 444.007812 431.589844 447.804688 427.792969 447.804688 423.101562 C 447.804688 410.785156 457.800781 395.996094 469.367188 378.851562 C 486.046875 354.078125 504.957031 325.996094 504.957031 289.652344 C 504.957031 217.851562 446.546875 159.4375 374.753906 159.4375 Z M 381.019531 214.320312 C 381.019531 209.628906 377.21875 205.832031 372.53125 205.832031 C 327.507812 205.832031 290.894531 242.457031 290.894531 287.484375 C 290.894531 292.175781 294.691406 295.96875 299.378906 295.96875 C 304.074219 295.96875 307.867188 292.171875 307.867188 287.484375 C 307.867188 251.816406 336.878906 222.8125 372.53125 222.8125 C 377.21875 222.804688 381.019531 219.011719 381.019531 214.320312 Z M 228.5 289.652344 C 228.5 284.960938 224.699219 281.167969 220.011719 281.167969 L 166.003906 281.167969 C 161.308594 281.167969 157.515625 284.960938 157.515625 289.652344 C 157.515625 294.34375 161.308594 298.140625 166.003906 298.140625 L 220.011719 298.140625 C 224.699219 298.140625 228.5 294.34375 228.5 289.652344 Z M 583.453125 281.167969 L 529.425781 281.167969 C 524.734375 281.167969 520.941406 284.960938 520.941406 289.652344 C 520.941406 294.34375 524.734375 298.140625 529.425781 298.140625 L 583.453125 298.140625 C 588.144531 298.140625 591.9375 294.339844 591.9375 289.652344 C 591.9375 284.960938 588.140625 281.167969 583.453125 281.167969 Z M 252.929688 189.03125 C 254.441406 190.125 256.183594 190.652344 257.921875 190.652344 C 260.542969 190.652344 263.125 189.441406 264.785156 187.152344 C 267.539062 183.359375 266.710938 178.050781 262.917969 175.289062 L 219.21875 143.550781 C 215.4375 140.808594 210.117188 141.617188 207.371094 145.433594 C 204.617188 149.230469 205.445312 154.535156 209.246094 157.292969 Z M 252.929688 390.320312 L 209.234375 422.058594 C 205.433594 424.816406 204.609375 430.121094 207.359375 433.921875 C 209.019531 436.207031 211.601562 437.417969 214.222656 437.417969 C 215.960938 437.417969 217.703125 436.894531 219.210938 435.800781 L 262.90625 404.0625 C 266.703125 401.304688 267.527344 396 264.773438 392.199219 C 262.015625 388.382812 256.710938 387.589844 252.929688 390.320312 Z M 491.53125 190.652344 C 493.273438 190.652344 495.015625 190.132812 496.527344 189.03125 L 540.222656 157.300781 C 544.019531 154.539062 544.847656 149.238281 542.097656 145.4375 C 539.34375 141.625 534.023438 140.816406 530.246094 143.558594 L 486.550781 175.296875 C 482.75 178.054688 481.925781 183.359375 484.675781 187.15625 C 486.332031 189.441406 488.914062 190.652344 491.53125 190.652344 Z M 496.527344 390.320312 C 492.765625 387.582031 487.441406 388.382812 484.675781 392.199219 C 481.921875 396 482.75 401.304688 486.550781 404.0625 L 530.246094 435.800781 C 531.75 436.894531 533.492188 437.417969 535.234375 437.417969 C 537.855469 437.417969 540.4375 436.207031 542.097656 433.921875 C 544.851562 430.121094 544.019531 424.816406 540.222656 422.058594 Z M 496.527344 390.320312 " fill-opacity="1" fill-rule="nonzero"/></g></svg>