<svg xmlns="http://www.w3.org/2000/svg" xmlns:xlink="http://www.w3.org/1999/xlink" width="1000" zoomAndPan="magnify" viewBox="0 0 750 749.999995" height="1000" preserveAspectRatio="xMidYMid meet" version="1.0"><defs><clipPath id="ae45282f57"><path d="M 0 20.457031 L 750 20.457031 L 750 729.203125 L 0 729.203125 Z M 0 20.457031 " clip-rule="nonzero"/></clipPath><clipPath id="a7296e8e28"><path d="M 190.648438 191 L 559.648438 191 L 559.648438 559.648438 L 190.648438 559.648438 Z M 190.648438 191 " clip-rule="nonzero"/></clipPath></defs><g clip-path="url(#ae45282f57)"><path fill="#004225" d="M 0.453125 374.925781 C 0.453125 180.011719 160.011719 20.457031 354.921875 20.457031 L 395.074219 20.457031 C 589.988281 20.457031 749.546875 180.011719 749.546875 374.925781 C 749.546875 569.839844 589.988281 729.394531 395.074219 729.394531 L 354.921875 729.394531 C 160.011719 729.542969 0.453125 569.988281 0.453125 374.925781 Z M 0.453125 374.925781 " fill-opacity="1" fill-rule="nonzero"/></g><g clip-path="url(#a7296e8e28)"><path fill="#f5f5dc" d="M 508.136719 231.613281 L 487.652344 231.613281 C 487.417969 230.296875 487.125 228.988281 486.777344 227.695312 C 486.425781 226.402344 486.019531 225.128906 485.5625 223.871094 C 485.101562 222.613281 484.585938 221.375 484.019531 220.164062 C 483.449219 218.949219 482.832031 217.765625 482.160156 216.605469 C 481.488281 215.445312 480.765625 214.320312 479.996094 213.222656 C 479.226562 212.125 478.410156 211.066406 477.546875 210.042969 C 476.6875 209.015625 475.78125 208.03125 474.832031 207.085938 C 473.882812 206.136719 472.898438 205.234375 471.871094 204.375 C 470.84375 203.515625 469.78125 202.703125 468.683594 201.933594 C 467.585938 201.167969 466.457031 200.449219 465.292969 199.78125 C 464.132812 199.113281 462.945312 198.496094 461.730469 197.929688 C 460.519531 197.363281 459.28125 196.851562 458.023438 196.394531 C 456.761719 195.9375 455.488281 195.535156 454.191406 195.191406 C 452.898438 194.84375 451.59375 194.554688 450.273438 194.324219 C 448.953125 194.089844 447.628906 193.914062 446.292969 193.800781 C 444.957031 193.683594 443.621094 193.625 442.28125 193.625 C 440.941406 193.625 439.605469 193.683594 438.269531 193.800781 C 436.9375 193.914062 435.609375 194.089844 434.292969 194.324219 C 432.972656 194.554688 431.664062 194.84375 430.371094 195.191406 C 429.078125 195.535156 427.800781 195.9375 426.542969 196.394531 C 425.28125 196.851562 424.046875 197.363281 422.832031 197.929688 C 421.617188 198.496094 420.429688 199.113281 419.269531 199.78125 C 418.109375 200.449219 416.980469 201.167969 415.882812 201.933594 C 414.785156 202.703125 413.722656 203.515625 412.695312 204.375 C 411.667969 205.234375 410.679688 206.136719 409.730469 207.085938 C 408.785156 208.03125 407.878906 209.015625 407.015625 210.042969 C 406.152344 211.066406 405.335938 212.125 404.566406 213.222656 C 403.796875 214.320312 403.078125 215.445312 402.40625 216.605469 C 401.734375 217.765625 401.113281 218.949219 400.546875 220.164062 C 399.976562 221.375 399.464844 222.613281 399.003906 223.871094 C 398.542969 225.128906 398.136719 226.402344 397.789062 227.695312 C 397.441406 228.988281 397.148438 230.296875 396.914062 231.613281 L 354.511719 231.613281 C 354.328125 230.246094 354.082031 228.886719 353.777344 227.539062 C 353.472656 226.195312 353.105469 224.863281 352.679688 223.550781 C 352.257812 222.234375 351.773438 220.945312 351.230469 219.671875 C 350.691406 218.402344 350.09375 217.160156 349.4375 215.941406 C 348.785156 214.726562 348.078125 213.542969 347.320312 212.386719 C 346.558594 211.234375 345.75 210.117188 344.890625 209.039062 C 344.027344 207.957031 343.121094 206.917969 342.167969 205.917969 C 341.214844 204.921875 340.21875 203.964844 339.179688 203.058594 C 338.140625 202.148438 337.0625 201.285156 335.945312 200.472656 C 334.828125 199.660156 333.675781 198.902344 332.492188 198.191406 C 331.304688 197.484375 330.089844 196.828125 328.847656 196.230469 C 327.601562 195.628906 326.335938 195.085938 325.042969 194.601562 C 323.75 194.117188 322.4375 193.691406 321.105469 193.320312 C 319.773438 192.953125 318.429688 192.648438 317.070312 192.398438 C 315.710938 192.152344 314.34375 191.96875 312.96875 191.84375 C 311.59375 191.71875 310.214844 191.65625 308.835938 191.65625 C 307.453125 191.65625 306.074219 191.71875 304.699219 191.84375 C 303.324219 191.96875 301.957031 192.152344 300.597656 192.398438 C 299.242188 192.648438 297.894531 192.953125 296.5625 193.320312 C 295.234375 193.691406 293.921875 194.117188 292.628906 194.601562 C 291.335938 195.085938 290.066406 195.628906 288.824219 196.230469 C 287.578125 196.828125 286.363281 197.484375 285.179688 198.191406 C 283.992188 198.902344 282.84375 199.660156 281.726562 200.472656 C 280.609375 201.285156 279.53125 202.148438 278.492188 203.058594 C 277.453125 203.964844 276.457031 204.921875 275.503906 205.917969 C 274.546875 206.917969 273.640625 207.957031 272.78125 209.039062 C 271.921875 210.117188 271.109375 211.234375 270.351562 212.386719 C 269.589844 213.542969 268.882812 214.726562 268.230469 215.941406 C 267.578125 217.160156 266.980469 218.402344 266.4375 219.671875 C 265.898438 220.945312 265.414062 222.234375 264.988281 223.550781 C 264.5625 224.863281 264.199219 226.195312 263.890625 227.539062 C 263.585938 228.886719 263.339844 230.246094 263.15625 231.613281 L 242.675781 231.613281 C 241 231.585938 239.332031 231.640625 237.664062 231.777344 C 235.996094 231.914062 234.339844 232.132812 232.691406 232.429688 C 231.046875 232.730469 229.417969 233.109375 227.808594 233.566406 C 226.199219 234.027344 224.617188 234.5625 223.0625 235.175781 C 221.503906 235.789062 219.980469 236.480469 218.492188 237.242188 C 217.003906 238.003906 215.554688 238.839844 214.148438 239.742188 C 212.742188 240.648438 211.382812 241.621094 210.070312 242.660156 C 208.757812 243.695312 207.5 244.796875 206.292969 245.957031 C 205.089844 247.121094 203.945312 248.335938 202.859375 249.613281 C 201.777344 250.886719 200.757812 252.210938 199.800781 253.582031 C 198.847656 254.957031 197.960938 256.375 197.144531 257.835938 C 196.328125 259.296875 195.585938 260.792969 194.914062 262.324219 C 194.246094 263.859375 193.652344 265.421875 193.136719 267.011719 C 192.621094 268.605469 192.183594 270.21875 191.824219 271.851562 C 191.464844 273.484375 191.1875 275.132812 190.992188 276.796875 C 190.796875 278.457031 190.679688 280.125 190.648438 281.796875 L 190.648438 507.109375 C 190.613281 508.808594 190.664062 510.503906 190.800781 512.199219 C 190.933594 513.890625 191.152344 515.574219 191.453125 517.246094 C 191.757812 518.917969 192.140625 520.570312 192.609375 522.203125 C 193.074219 523.835938 193.621094 525.441406 194.246094 527.023438 C 194.875 528.601562 195.578125 530.144531 196.359375 531.652344 C 197.136719 533.164062 197.992188 534.628906 198.917969 536.054688 C 199.84375 537.476562 200.839844 538.851562 201.902344 540.175781 C 202.964844 541.503906 204.089844 542.769531 205.277344 543.984375 C 206.46875 545.199219 207.714844 546.347656 209.019531 547.4375 C 210.324219 548.527344 211.675781 549.546875 213.082031 550.503906 C 214.488281 551.457031 215.9375 552.339844 217.429688 553.148438 C 218.921875 553.957031 220.453125 554.691406 222.019531 555.347656 C 223.585938 556.007812 225.179688 556.585938 226.804688 557.085938 C 228.429688 557.582031 230.074219 558 231.738281 558.335938 C 233.402344 558.671875 235.082031 558.921875 236.773438 559.089844 C 238.460938 559.257812 240.15625 559.34375 241.855469 559.34375 L 508.136719 559.34375 C 509.8125 559.34375 511.484375 559.261719 513.15625 559.097656 C 514.824219 558.933594 516.480469 558.6875 518.125 558.359375 C 519.769531 558.03125 521.394531 557.625 523 557.136719 C 524.605469 556.652344 526.183594 556.085938 527.730469 555.445312 C 529.28125 554.804688 530.796875 554.085938 532.273438 553.296875 C 533.753906 552.507812 535.191406 551.644531 536.585938 550.714844 C 537.980469 549.78125 539.324219 548.785156 540.621094 547.71875 C 541.917969 546.65625 543.160156 545.53125 544.34375 544.34375 C 545.53125 543.160156 546.65625 541.917969 547.71875 540.621094 C 548.785156 539.324219 549.78125 537.980469 550.714844 536.585938 C 551.644531 535.191406 552.507812 533.753906 553.296875 532.273438 C 554.085938 530.796875 554.804688 529.28125 555.445312 527.730469 C 556.085938 526.183594 556.652344 524.605469 557.136719 523 C 557.625 521.394531 558.03125 519.769531 558.359375 518.125 C 558.6875 516.480469 558.933594 514.824219 559.097656 513.15625 C 559.261719 511.484375 559.34375 509.8125 559.34375 508.136719 L 559.34375 282.820312 C 559.34375 281.144531 559.261719 279.472656 559.097656 277.800781 C 558.933594 276.132812 558.6875 274.476562 558.359375 272.832031 C 558.03125 271.1875 557.625 269.5625 557.136719 267.957031 C 556.652344 266.351562 556.085938 264.773438 555.445312 263.226562 C 554.804688 261.675781 554.085938 260.160156 553.296875 258.683594 C 552.507812 257.203125 551.644531 255.765625 550.714844 254.371094 C 549.78125 252.976562 548.785156 251.632812 547.71875 250.335938 C 546.65625 249.039062 545.53125 247.796875 544.34375 246.613281 C 543.160156 245.425781 541.917969 244.300781 540.621094 243.238281 C 539.324219 242.171875 537.980469 241.175781 536.585938 240.242188 C 535.191406 239.3125 533.753906 238.449219 532.273438 237.660156 C 530.796875 236.871094 529.28125 236.152344 527.730469 235.511719 C 526.183594 234.871094 524.605469 234.304688 523 233.820312 C 521.394531 233.332031 519.769531 232.925781 518.125 232.597656 C 516.480469 232.269531 514.824219 232.023438 513.15625 231.859375 C 511.484375 231.695312 509.8125 231.613281 508.136719 231.613281 Z M 441.976562 213.179688 C 443.332031 213.1875 444.675781 213.304688 446.015625 213.53125 C 447.351562 213.757812 448.660156 214.09375 449.941406 214.535156 C 451.226562 214.972656 452.464844 215.515625 453.660156 216.15625 C 454.851562 216.800781 455.988281 217.535156 457.0625 218.359375 C 458.136719 219.1875 459.136719 220.097656 460.066406 221.085938 C 460.992188 222.074219 461.832031 223.132812 462.585938 224.261719 C 463.339844 225.386719 464 226.566406 464.5625 227.800781 C 465.125 229.035156 465.585938 230.304688 465.941406 231.613281 L 417.804688 231.613281 C 418.113281 230.25 418.535156 228.921875 419.066406 227.628906 C 419.601562 226.335938 420.234375 225.097656 420.976562 223.910156 C 421.71875 222.726562 422.550781 221.609375 423.480469 220.5625 C 424.40625 219.515625 425.414062 218.554688 426.503906 217.679688 C 427.59375 216.800781 428.746094 216.023438 429.96875 215.339844 C 431.1875 214.65625 432.457031 214.078125 433.773438 213.609375 C 435.089844 213.140625 436.4375 212.78125 437.8125 212.539062 C 439.191406 212.292969 440.578125 212.167969 441.976562 212.15625 Z M 308.628906 213.179688 C 309.984375 213.1875 311.332031 213.304688 312.667969 213.53125 C 314.007812 213.757812 315.316406 214.09375 316.597656 214.535156 C 317.878906 214.972656 319.117188 215.515625 320.3125 216.15625 C 321.507812 216.800781 322.640625 217.535156 323.71875 218.359375 C 324.792969 219.1875 325.792969 220.097656 326.71875 221.085938 C 327.648438 222.074219 328.488281 223.132812 329.242188 224.261719 C 329.996094 225.386719 330.65625 226.566406 331.21875 227.800781 C 331.78125 229.035156 332.238281 230.304688 332.59375 231.613281 L 284.460938 231.613281 C 284.769531 230.25 285.191406 228.921875 285.722656 227.628906 C 286.253906 226.335938 286.890625 225.097656 287.632812 223.910156 C 288.371094 222.726562 289.207031 221.609375 290.132812 220.5625 C 291.0625 219.515625 292.070312 218.554688 293.160156 217.679688 C 294.25 216.800781 295.402344 216.023438 296.621094 215.339844 C 297.84375 214.65625 299.109375 214.078125 300.429688 213.609375 C 301.746094 213.140625 303.089844 212.78125 304.46875 212.539062 C 305.84375 212.292969 307.230469 212.167969 308.628906 212.15625 Z M 241.855469 252.097656 L 330.136719 252.097656 C 326.039062 262.75 305.96875 261.929688 309.65625 276.0625 C 320.714844 296.546875 349.597656 266.023438 352.054688 252.097656 L 463.074219 252.097656 C 458.976562 262.75 438.902344 261.929688 442.589844 276.0625 C 453.648438 296.546875 482.53125 266.023438 484.988281 252.097656 L 508.136719 252.097656 C 509.121094 252.097656 510.105469 252.144531 511.085938 252.238281 C 512.066406 252.332031 513.039062 252.472656 514.007812 252.660156 C 514.972656 252.847656 515.929688 253.082031 516.875 253.359375 C 517.820312 253.640625 518.746094 253.964844 519.660156 254.332031 C 520.574219 254.703125 521.46875 255.113281 522.34375 255.570312 C 523.214844 256.023438 524.066406 256.519531 524.890625 257.058594 C 525.71875 257.59375 526.515625 258.167969 527.289062 258.785156 C 528.058594 259.398438 528.796875 260.046875 529.507812 260.730469 C 530.214844 261.414062 530.890625 262.132812 531.527344 262.882812 C 532.167969 263.632812 532.769531 264.410156 533.335938 265.21875 C 533.898438 266.027344 534.421875 266.859375 534.90625 267.714844 C 535.390625 268.574219 535.832031 269.453125 536.234375 270.355469 C 536.632812 271.253906 536.988281 272.171875 537.300781 273.105469 C 537.613281 274.042969 537.878906 274.988281 538.097656 275.949219 C 538.320312 276.910156 538.492188 277.878906 538.621094 278.855469 C 538.746094 279.832031 538.828125 280.8125 538.859375 281.796875 L 538.859375 313.546875 L 211.128906 313.546875 L 211.128906 281.796875 C 211.164062 280.8125 211.242188 279.832031 211.371094 278.855469 C 211.5 277.878906 211.671875 276.910156 211.890625 275.949219 C 212.113281 274.988281 212.378906 274.042969 212.691406 273.105469 C 213 272.171875 213.355469 271.253906 213.757812 270.355469 C 214.15625 269.453125 214.597656 268.574219 215.082031 267.714844 C 215.566406 266.859375 216.09375 266.027344 216.65625 265.21875 C 217.222656 264.410156 217.824219 263.632812 218.460938 262.882812 C 219.101562 262.132812 219.777344 261.414062 220.484375 260.730469 C 221.191406 260.046875 221.933594 259.398438 222.703125 258.785156 C 223.472656 258.167969 224.273438 257.59375 225.097656 257.058594 C 225.925781 256.519531 226.773438 256.023438 227.648438 255.570312 C 228.523438 255.113281 229.414062 254.703125 230.328125 254.332031 C 231.242188 253.964844 232.171875 253.640625 233.117188 253.359375 C 234.0625 253.082031 235.015625 252.847656 235.984375 252.660156 C 236.953125 252.472656 237.925781 252.332031 238.90625 252.238281 C 239.886719 252.144531 240.871094 252.097656 241.855469 252.097656 Z M 508.136719 538.859375 L 241.855469 538.859375 C 240.828125 538.859375 239.800781 538.808594 238.777344 538.707031 C 237.757812 538.605469 236.742188 538.453125 235.734375 538.246094 C 234.726562 538.042969 233.730469 537.789062 232.75 537.484375 C 231.765625 537.179688 230.804688 536.828125 229.855469 536.425781 C 228.910156 536.027344 227.984375 535.578125 227.082031 535.085938 C 226.183594 534.589844 225.308594 534.054688 224.460938 533.472656 C 223.613281 532.890625 222.796875 532.269531 222.011719 531.605469 C 221.222656 530.941406 220.472656 530.242188 219.757812 529.5 C 219.042969 528.761719 218.367188 527.992188 217.730469 527.183594 C 217.09375 526.378906 216.5 525.539062 215.945312 524.675781 C 215.390625 523.808594 214.882812 522.917969 214.417969 522 C 213.957031 521.082031 213.539062 520.144531 213.167969 519.183594 C 212.800781 518.222656 212.480469 517.25 212.207031 516.257812 C 211.933594 515.265625 211.714844 514.261719 211.542969 513.25 C 211.371094 512.234375 211.25 511.214844 211.183594 510.191406 C 211.113281 509.164062 211.097656 508.136719 211.128906 507.109375 L 211.128906 334.027344 L 538.859375 334.027344 L 538.859375 508.136719 C 538.859375 509.140625 538.8125 510.144531 538.710938 511.148438 C 538.613281 512.148438 538.464844 513.140625 538.269531 514.128906 C 538.074219 515.117188 537.828125 516.089844 537.535156 517.054688 C 537.246094 518.015625 536.90625 518.964844 536.519531 519.894531 C 536.136719 520.824219 535.707031 521.730469 535.230469 522.617188 C 534.757812 523.507812 534.242188 524.367188 533.683594 525.203125 C 533.121094 526.042969 532.523438 526.847656 531.886719 527.625 C 531.246094 528.40625 530.574219 529.148438 529.859375 529.859375 C 529.148438 530.574219 528.40625 531.246094 527.625 531.886719 C 526.847656 532.523438 526.042969 533.121094 525.203125 533.683594 C 524.367188 534.242188 523.507812 534.757812 522.617188 535.230469 C 521.730469 535.707031 520.824219 536.136719 519.894531 536.519531 C 518.964844 536.90625 518.015625 537.246094 517.054688 537.535156 C 516.089844 537.828125 515.117188 538.074219 514.128906 538.269531 C 513.140625 538.464844 512.148438 538.613281 511.148438 538.710938 C 510.144531 538.8125 509.140625 538.859375 508.136719 538.859375 Z M 508.136719 538.859375 " fill-opacity="1" fill-rule="nonzero"/></g></svg>