<svg xmlns="http://www.w3.org/2000/svg" xmlns:xlink="http://www.w3.org/1999/xlink" width="1000" zoomAndPan="magnify" viewBox="0 0 750 749.999995" height="1000" preserveAspectRatio="xMidYMid meet" version="1.0"><defs><clipPath id="2d81c12ebc"><path d="M 0 20.457031 L 750 20.457031 L 750 729.203125 L 0 729.203125 Z M 0 20.457031 " clip-rule="nonzero"/></clipPath><clipPath id="9901f20497"><path d="M 172.75 206 L 544 206 L 544 577 L 172.75 577 Z M 172.75 206 " clip-rule="nonzero"/></clipPath></defs><g clip-path="url(#2d81c12ebc)"><path fill="#004225" d="M 0.453125 374.925781 C 0.453125 180.011719 160.011719 20.457031 354.921875 20.457031 L 395.074219 20.457031 C 589.988281 20.457031 749.546875 180.011719 749.546875 374.925781 C 749.546875 569.839844 589.988281 729.394531 395.074219 729.394531 L 354.921875 729.394531 C 160.011719 729.542969 0.453125 569.988281 0.453125 374.925781 Z M 0.453125 374.925781 " fill-opacity="1" fill-rule="nonzero"/></g><g clip-path="url(#9901f20497)"><path fill="#f5f5dc" d="M 512.402344 546.367188 L 203.625 546.367188 L 203.625 237.589844 L 388.890625 237.589844 L 388.890625 206.714844 L 203.625 206.714844 C 186.582031 206.714844 172.75 220.546875 172.75 237.589844 L 172.75 546.367188 C 172.75 563.410156 186.582031 577.246094 203.625 577.246094 L 512.402344 577.246094 C 529.445312 577.246094 543.277344 563.410156 543.277344 546.367188 L 543.277344 361.101562 L 512.402344 361.101562 Z M 512.402344 546.367188 " fill-opacity="1" fill-rule="nonzero"/></g><path fill="#f5f5dc" d="M 296.257812 454.226562 L 361.257812 454.226562 L 518.792969 296.691406 L 453.300781 231.199219 L 296.257812 388.242188 Z M 296.257812 454.226562 " fill-opacity="1" fill-rule="nonzero"/><path fill="#f5f5dc" d="M 565.109375 206.714844 L 543.277344 184.882812 C 531.207031 172.808594 511.660156 172.808594 499.617188 184.882812 L 475.132812 209.371094 L 540.625 274.859375 L 565.109375 250.375 C 577.183594 238.300781 577.183594 218.757812 565.109375 206.714844 Z M 565.109375 206.714844 " fill-opacity="1" fill-rule="nonzero"/></svg>