<svg xmlns="http://www.w3.org/2000/svg" xmlns:xlink="http://www.w3.org/1999/xlink" width="1000" zoomAndPan="magnify" viewBox="0 0 750 749.999995" height="1000" preserveAspectRatio="xMidYMid meet" version="1.0"><defs><g/></defs><path fill="#004225" d="M 288.9375 746.566406 C 288.046875 745.378906 285.226562 739.585938 276.914062 720.433594 C 272.308594 709.59375 268.152344 700.980469 268.152344 700.980469 C 268.152344 700.980469 256.125 703.0625 242.019531 705.585938 C 227.46875 708.109375 215.144531 710.1875 213.808594 710.1875 C 210.839844 710.1875 210.097656 709 210.097656 706.03125 C 210.097656 704.398438 213.808594 698.605469 236.972656 663.417969 C 251.523438 640.996094 264.292969 622.4375 264.738281 621.546875 L 265.925781 620.359375 L 295.324219 619.171875 C 319.378906 618.28125 324.722656 617.984375 325.167969 617.539062 C 326.800781 615.902344 342.09375 595.5625 342.09375 595.117188 C 342.09375 594.671875 339.125 593.039062 335.117188 591.40625 C 313.585938 580.566406 294.582031 566.90625 277.507812 549.980469 C 241.425781 513.898438 219.152344 467.574219 213.363281 415.753906 C 212.917969 411.597656 212.472656 403.28125 212.472656 391.257812 C 212.472656 374.625 212.472656 371.804688 213.660156 364.382812 C 216.925781 338.25 223.609375 315.976562 234.300781 294.449219 C 236.378906 290.289062 238.011719 286.578125 237.566406 286.578125 C 236.675781 285.6875 186.636719 250.945312 186.191406 250.945312 C 185.746094 250.945312 172.53125 257.921875 157.238281 266.683594 C 130.808594 281.234375 128.730469 282.421875 126.207031 282.421875 C 124.128906 282.421875 119.226562 280.34375 84.78125 264.160156 C 63.25 254.210938 35.933594 241.441406 23.90625 235.949219 C 11.878906 230.15625 1.484375 225.109375 1.1875 224.8125 C 0 223.625 0 219.914062 1.1875 219.019531 C 1.632812 218.574219 20.191406 208.628906 42.167969 197.492188 L 82.257812 176.851562 L 82.703125 174.773438 C 82.703125 173.585938 82.257812 158.589844 81.8125 141.664062 C 81.367188 124.738281 80.625 108.109375 80.625 105.285156 C 80.625 99.941406 80.625 99.496094 81.8125 99.050781 C 84.335938 97.417969 86.710938 98.160156 94.285156 104.394531 C 96.363281 106.027344 116.257812 121.769531 138.234375 139.585938 C 160.207031 156.957031 179.214844 172.25 179.660156 172.695312 C 181.292969 174.328125 181.292969 175.21875 187.082031 220.359375 C 188.714844 231.9375 190.050781 242.332031 190.050781 243.074219 C 190.496094 244.261719 194.65625 247.230469 216.183594 262.527344 C 230.289062 272.472656 241.871094 280.34375 241.871094 280.34375 C 241.871094 280.34375 243.503906 277.375 246.027344 274.105469 C 274.535156 228.523438 320.121094 194.671875 372.679688 179.675781 C 380.996094 177.152344 389.308594 175.515625 399.109375 173.882812 C 403.265625 172.992188 408.167969 172.25 410.691406 170.914062 C 421.828125 166.757812 447.070312 163.9375 466.222656 164.679688 C 471.121094 164.679688 475.28125 164.679688 474.984375 164.679688 C 474.539062 164.234375 465.480469 157.253906 454.34375 148.941406 C 443.207031 140.625 433.707031 133.199219 433.261719 132.753906 C 432.816406 132.308594 428.65625 109.148438 423.757812 78.5625 C 411.285156 3.132812 411.730469 7.738281 412.917969 6.101562 C 413.363281 4.914062 414.105469 4.914062 415.886719 4.46875 C 418.414062 4.46875 418.414062 4.46875 431.625 13.527344 C 464.738281 36.691406 488.34375 53.320312 489.238281 53.320312 C 489.683594 53.320312 492.503906 52.132812 495.472656 50.351562 C 498.441406 48.714844 507.054688 44.113281 514.476562 40.402344 C 521.902344 36.691406 529.769531 32.53125 531.851562 31.34375 C 533.929688 30.15625 537.195312 28.078125 538.828125 27.1875 C 542.539062 24.664062 545.808594 24.664062 547.589844 26.742188 C 548.777344 28.375 548.777344 30.007812 547.144531 51.242188 C 544.171875 88.953125 542.984375 102.613281 539.71875 128.300781 C 538.085938 141.070312 537.195312 144.039062 535.5625 146.117188 C 534.671875 147.007812 528.136719 152.355469 514.476562 162.746094 C 509.875 166.015625 506.164062 169.429688 506.609375 169.429688 C 507.054688 169.429688 509.578125 170.320312 512.398438 171.0625 C 524.871094 174.03125 540.164062 180.121094 553.378906 186.800781 C 605.199219 213.230469 644.84375 260.148438 663.996094 318.054688 C 676.765625 357.402344 679.734375 401.351562 671.417969 442.628906 C 657.757812 511.820312 614.699219 570.171875 554.714844 600.3125 C 532.742188 611.449219 510.765625 618.132812 485.226562 620.953125 C 474.835938 622.140625 449.59375 622.140625 439.199219 620.953125 C 425.539062 619.320312 409.355469 616.050781 406.832031 614.269531 C 405.941406 613.824219 403.117188 613.082031 399.40625 612.636719 C 384.113281 610.113281 366.742188 605.660156 353.824219 600.609375 C 351.746094 599.71875 350.113281 599.421875 349.667969 599.421875 C 349.222656 599.421875 332.742188 620.507812 331.402344 622.585938 C 331.402344 623.03125 334.671875 634.613281 338.828125 648.71875 C 345.0625 668.613281 346.695312 674.40625 346.25 676.039062 C 346.25 677.671875 342.984375 682.273438 321.011719 711.671875 C 307.351562 730.234375 295.324219 745.972656 294.582031 746.863281 " fill-opacity="1" fill-rule="nonzero"/><path fill="#004225" d="M 289.234375 304.84375 C 300.371094 284.5 315.367188 266.683594 333.1875 253.46875 C 353.824219 237.730469 374.609375 228.96875 400.742188 225.703125 C 407.722656 224.8125 431.03125 224.8125 438.011719 226.148438 C 456.273438 229.117188 472.011719 234.464844 487.304688 243.074219 C 490.574219 245.152344 493.542969 246.339844 493.988281 246.339844 C 493.988281 245.894531 493.988281 238.917969 493.097656 229.710938 C 492.652344 220.953125 492.207031 212.785156 492.207031 211.449219 L 492.207031 209.519531 L 487.304688 207.441406 C 466.667969 199.570312 447.21875 195.859375 425.539062 195.859375 C 399.109375 195.859375 374.609375 201.648438 349.816406 214.121094 C 316.257812 230.75 288.9375 258.070312 269.488281 293.558594 L 267.855469 296.824219 L 277.359375 303.503906 C 282.257812 307.21875 286.859375 309.742188 286.859375 309.742188 C 286.859375 309.296875 288.046875 307.21875 289.234375 304.84375 Z M 412.621094 487.765625 C 418.414062 486.875 425.390625 485.242188 427.171875 484.5 C 428.0625 484.054688 429.695312 483.609375 430.882812 483.3125 C 433.410156 482.867188 443.652344 477.96875 449.148438 474.554688 C 464.886719 464.605469 478.101562 448.125 485.523438 430.601562 C 495.027344 407.441406 496.363281 385.019531 489.683594 360.667969 C 480.921875 329.191406 457.3125 303.058594 427.914062 293.113281 C 409.355469 286.429688 391.835938 286.429688 373.273438 292.222656 C 366.296875 294.300781 355.902344 299.644531 349.667969 304.246094 C 340.90625 310.484375 330.214844 322.066406 324.425781 331.566406 L 322.347656 335.28125 L 336.898438 345.671875 C 351.003906 355.621094 351.449219 355.621094 352.636719 354.730469 C 360.503906 348.496094 366.296875 345.226562 373.273438 343.59375 C 379.511719 341.960938 389.90625 341.515625 395.992188 343.148438 C 405.496094 345.226562 413.363281 349.386719 420.492188 355.917969 C 426.726562 362.15625 430.882812 368.390625 433.261719 377.003906 C 434.449219 381.160156 434.449219 381.902344 434.449219 391.554688 C 434.449219 401.054688 434.449219 401.945312 433.261719 406.105469 C 428.359375 422.734375 415.441406 435.058594 398.960938 439.660156 C 395.25 440.550781 393.617188 440.847656 385.746094 440.847656 C 377.878906 440.847656 376.246094 440.847656 372.976562 439.660156 C 356.050781 435.058594 342.6875 421.84375 338.679688 404.917969 C 337.492188 400.757812 337.492188 398.679688 337.492188 392.445312 C 337.492188 381.605469 339.570312 373.4375 344.46875 366.015625 L 346.546875 362.75 L 332.886719 353.246094 C 325.464844 347.902344 319.230469 343.742188 318.78125 343.742188 C 317.890625 344.632812 313.882812 356.957031 312.546875 361.113281 C 307.203125 381.753906 307.945312 400.460938 314.625 420.804688 C 326.652344 456.882812 356.050781 482.867188 391.6875 488.359375 C 396.585938 488.210938 407.277344 488.210938 412.621094 487.765625 Z M 365.851562 564.382812 C 370.75 557.699219 375.355469 551.910156 375.800781 551.167969 L 376.691406 549.980469 L 373.421875 548.792969 C 344.023438 539.289062 317.148438 518.503906 298.886719 492.074219 C 285.226562 472.175781 274.832031 447.828125 270.675781 423.773438 C 268.152344 409.667969 267.410156 389.472656 268.152344 376.113281 C 269.785156 355.769531 274.386719 336.765625 282.257812 318.203125 C 282.257812 317.757812 278.101562 314.9375 273.199219 311.226562 L 263.699219 304.546875 L 262.066406 308.257812 C 261.171875 310.335938 259.09375 314.9375 257.90625 318.648438 C 244.691406 354.285156 240.980469 392.742188 247.511719 429.5625 C 258.648438 492.074219 296.363281 545.527344 348.925781 572.84375 C 352.636719 574.480469 355.605469 576.113281 355.902344 576.113281 C 356.347656 576.410156 360.503906 571.0625 365.851562 564.382812 Z M 442.910156 592.59375 C 504.679688 586.355469 557.980469 548.347656 587.378906 489.847656 C 617.226562 430.601562 616.78125 359.777344 586.933594 300.238281 C 568.375 262.972656 540.609375 234.019531 504.53125 215.011719 L 499.628906 212.488281 L 499.628906 213.675781 C 499.628906 214.566406 500.074219 223.179688 500.519531 233.570312 L 501.410156 251.835938 L 503.046875 253.023438 C 508.390625 257.179688 513.882812 262.078125 519.230469 267.574219 C 544.914062 293.707031 561.101562 328.894531 565.257812 367.796875 C 566.148438 376.113281 566.445312 393.039062 565.703125 401.796875 C 562.734375 439.511719 549.519531 473.363281 526.355469 501.574219 C 521.011719 507.8125 509.429688 519.394531 503.195312 524.292969 C 482.554688 540.476562 461.324219 549.535156 436.082031 553.691406 C 433.113281 554.136719 426.132812 554.582031 419.898438 554.878906 C 407.871094 555.324219 400 554.433594 390.945312 552.800781 C 387.972656 552.355469 385.597656 551.910156 385.152344 551.910156 C 384.707031 551.910156 364.515625 578.339844 364.070312 579.675781 C 364.070312 580.121094 365.257812 580.863281 370.304688 582.644531 C 382.332031 587.246094 397.625 590.515625 410.097656 592.148438 C 417.667969 593.039062 435.488281 593.335938 442.910156 592.59375 Z M 442.910156 592.59375 " fill-opacity="1" fill-rule="nonzero"/><path fill="#ffcf9d" d="M 263.253906 287.765625 C 277.359375 262.078125 298.441406 237.730469 322.050781 221.101562 C 345.65625 204.171875 372.976562 193.335938 402.375 189.175781 C 411.433594 187.988281 440.535156 187.988281 449.148438 189.175781 C 462.808594 191.253906 477.65625 194.96875 487.304688 198.234375 C 489.386719 199.125 491.464844 199.867188 491.464844 199.867188 C 491.910156 199.867188 491.464844 188.285156 491.019531 186.207031 C 491.019531 185.316406 489.832031 185.019531 484.039062 183.683594 C 448.40625 175.367188 417.820312 175.8125 383.816406 184.128906 C 334.523438 196.15625 290.277344 226.296875 260.429688 267.722656 C 255.085938 274.699219 249.296875 284.351562 249.59375 284.648438 C 250.484375 285.539062 259.984375 292.074219 260.429688 292.074219 C 260.726562 291.925781 261.914062 289.84375 263.253906 287.765625 Z M 397.773438 430.601562 C 411.878906 426 422.273438 414.863281 426.28125 400.3125 C 427.914062 394.96875 427.914062 387.097656 426.28125 381.753906 C 421.679688 365.125 409.355469 353.542969 392.726562 350.277344 C 384.855469 348.644531 375.800781 349.832031 367.929688 353.988281 C 364.21875 355.621094 358.425781 359.777344 358.425781 360.667969 C 358.425781 360.667969 364.664062 365.273438 372.53125 370.617188 C 391.984375 384.277344 391.539062 383.386719 391.539062 386.355469 C 391.539062 387.988281 391.09375 388.878906 390.351562 389.324219 C 387.824219 390.960938 386.636719 390.21875 369.265625 378.191406 L 352.636719 366.609375 L 351.449219 367.796875 C 349.816406 369.875 346.546875 377.300781 345.210938 381.457031 C 341.5 395.117188 345.65625 409.964844 356.347656 420.359375 C 365.109375 429.117188 374.90625 433.128906 386.933594 432.832031 C 391.984375 432.386719 393.617188 432.386719 397.773438 430.601562 Z M 399.851562 519.691406 C 409.355469 506.921875 417.667969 496.082031 418.117188 495.636719 C 419.007812 494.746094 419.007812 494.746094 417.222656 494.746094 C 413.066406 495.636719 396.882812 495.636719 391.984375 495.191406 C 380.402344 494.003906 370.453125 491.035156 360.503906 486.132812 C 349.371094 480.789062 341.054688 474.550781 332.292969 465.496094 C 319.527344 452.28125 310.765625 436.988281 305.421875 419.171875 C 297.996094 393.929688 299.628906 364.976562 309.578125 341.8125 L 311.210938 337.65625 L 310.023438 336.765625 C 309.578125 336.320312 304.679688 333.050781 299.183594 329.339844 L 289.234375 322.660156 L 288.046875 325.183594 C 284.335938 333.5 279.289062 350.871094 277.65625 361.558594 C 275.574219 373.585938 275.128906 376.410156 275.128906 391.40625 C 275.128906 407.144531 275.574219 412.042969 278.398438 425.703125 C 289.53125 480.34375 326.355469 524.292969 374.460938 541.21875 C 377.433594 542.40625 380.253906 543.296875 380.699219 543.296875 C 382.035156 542.40625 388.714844 534.242188 399.851562 519.691406 Z M 434.597656 546.566406 C 462.808594 541.960938 488.792969 528.746094 509.578125 508.40625 C 547.738281 471.582031 565.851562 414.863281 556.792969 360.964844 C 551.894531 332.011719 540.609375 306.328125 523.238281 284.351562 C 519.082031 279.007812 505.421875 264.902344 503.34375 264.011719 C 502.152344 263.121094 502.152344 259.40625 504.234375 304.542969 C 505.125 324.886719 505.867188 342.257812 505.867188 343 C 505.867188 345.078125 504.234375 346.265625 502.152344 346.265625 C 500.074219 346.265625 498.441406 344.632812 498.441406 343 C 498.441406 338.398438 494.285156 257.328125 494.285156 256.882812 C 493.839844 255.992188 486.414062 251.09375 480.625 248.125 C 467.410156 240.699219 452.117188 235.652344 436.378906 232.828125 C 428.0625 231.640625 408.167969 231.640625 399.554688 233.273438 C 385.003906 235.800781 374.757812 239.066406 360.652344 246.042969 C 341.203125 255.546875 323.386719 270.542969 309.28125 289.546875 C 303.042969 297.863281 293.097656 314.046875 293.988281 314.789062 C 293.988281 314.789062 298.886719 318.054688 304.382812 322.214844 C 310.171875 325.925781 314.773438 329.636719 315.21875 329.636719 C 315.664062 330.082031 316.851562 328.449219 318.484375 325.480469 C 327.988281 310.1875 344.171875 295.636719 359.910156 288.65625 C 381.886719 278.710938 407.128906 277.523438 429.84375 284.945312 C 444.394531 289.84375 456.71875 297.714844 468.746094 309.445312 C 486.117188 326.371094 496.511719 348.792969 500.222656 374.03125 C 501.855469 385.613281 501.410156 402.242188 499.035156 413.824219 C 493.246094 443.222656 475.429688 468.464844 451.078125 483.015625 C 446.179688 485.984375 442.761719 487.617188 436.527344 489.996094 L 432.371094 491.628906 L 411.878906 518.503906 C 394.953125 540.476562 391.539062 545.378906 392.429688 545.378906 C 393.320312 545.824219 401.484375 547.011719 405.199219 547.457031 C 408.910156 547.902344 429.695312 547.457031 434.597656 546.566406 Z M 349.371094 585.910156 C 350.261719 584.722656 351.003906 583.386719 350.558594 583.386719 C 350.113281 583.386719 346.84375 581.308594 343.132812 579.230469 C 298.886719 555.175781 265.332031 514.640625 248.257812 464.160156 C 243.355469 449.3125 239.941406 434.316406 237.863281 416.941406 C 236.675781 407.441406 236.675781 380.863281 237.417969 371.359375 C 239.941406 347.308594 245.285156 325.777344 254.34375 305.140625 C 255.53125 302.167969 256.421875 299.347656 256.421875 299.347656 C 255.976562 298.902344 253.453125 297.269531 250.632812 295.191406 L 245.285156 291.480469 L 242.019531 297.714844 C 219.300781 344.039062 213.808594 394.671875 226.28125 443.816406 C 241.574219 505.140625 283.445312 556.808594 340.164062 584.574219 C 343.875 586.207031 346.84375 587.84375 347.140625 587.84375 C 347.292969 587.992188 348.480469 587.246094 349.371094 585.910156 Z M 458.203125 605.808594 C 519.082031 598.382812 572.53125 566.90625 608.019531 518.058594 C 620.492188 501.128906 631.628906 479.601562 638.308594 458.8125 C 648.257812 429.414062 651.078125 397.046875 647.367188 367.351562 C 636.972656 286.132812 583.667969 219.167969 506.609375 190.511719 C 502.898438 189.324219 499.628906 187.988281 499.183594 187.988281 C 498.292969 187.988281 498.292969 191.703125 498.738281 199.125 L 499.183594 203.28125 L 504.085938 205.808594 C 522.644531 214.863281 539.273438 226.890625 555.457031 243.074219 C 589.460938 277.078125 609.652344 321.769531 615.441406 372.695312 C 616.632812 383.535156 616.632812 407.441406 615.441406 418.28125 C 612.472656 446.492188 605.941406 469.207031 594.359375 492.816406 C 589.460938 502.765625 586.042969 508.554688 580.253906 517.316406 C 552.042969 558.738281 510.765625 587.246094 463.847656 596.75 C 452.265625 599.273438 446.027344 599.71875 432.371094 600.015625 C 406.683594 600.460938 387.230469 597.492188 363.625 588.4375 C 360.652344 587.246094 358.277344 586.355469 358.277344 586.800781 C 358.277344 586.800781 357.386719 587.992188 356.644531 589.328125 C 355.753906 590.515625 355.011719 591.40625 355.011719 591.851562 C 355.011719 591.851562 357.980469 593.039062 361.695312 594.375 C 378.621094 600.609375 398.515625 604.769531 417.222656 606.847656 C 425.09375 606.996094 450.335938 606.699219 458.203125 605.808594 Z M 458.203125 605.808594 " fill-opacity="1" fill-rule="nonzero"/><path fill="#ffb000" d="M 487.15625 110.1875 C 485.96875 82.867188 484.632812 60.445312 484.632812 60.445312 C 484.1875 60 422.125 16.496094 421.679688 16.496094 C 421.679688 16.496094 421.679688 16.941406 421.679688 17.386719 C 422.125 18.574219 438.605469 120.878906 439.050781 124.144531 C 439.050781 125.332031 439.941406 127.113281 440.238281 127.410156 C 440.683594 127.855469 451.820312 136.171875 465.035156 145.96875 L 489.089844 164.234375 L 489.089844 162.152344 C 489.683594 160.667969 488.492188 137.507812 487.15625 110.1875 Z M 525.316406 144.1875 C 529.917969 140.921875 530.660156 139.585938 531.109375 138.398438 C 531.554688 136.765625 534.375 114.789062 535.710938 102.761719 C 536.898438 91.625 538.679688 74.996094 539.867188 56.4375 C 540.757812 46.488281 541.054688 37.878906 541.054688 37.433594 C 541.054688 36.988281 541.054688 36.246094 541.054688 36.246094 C 541.054688 36.246094 538.976562 37.433594 536.898438 38.769531 C 534.820312 39.957031 526.503906 44.558594 518.339844 48.714844 C 510.171875 52.875 500.964844 57.476562 497.996094 59.109375 L 492.207031 62.078125 L 492.652344 66.683594 C 492.652344 69.207031 493.839844 91.921875 495.175781 117.164062 C 496.363281 142.40625 497.253906 163.9375 497.699219 164.828125 L 498.144531 166.460938 L 509.28125 157.699219 C 514.921875 152.503906 522.347656 146.5625 525.316406 144.1875 Z M 490.574219 175.960938 C 490.128906 173.882812 488.492188 172.992188 481.515625 172.25 C 475.726562 171.359375 455.085938 170.617188 459.09375 171.359375 C 459.984375 171.359375 464.441406 172.25 469.488281 172.992188 C 474.386719 173.882812 480.625 175.070312 484.039062 175.515625 C 490.871094 177.300781 490.871094 177.300781 490.574219 175.960938 Z M 180.847656 226.890625 C 179.957031 221.101562 178.324219 207.886719 177.136719 197.492188 C 175.945312 187.097656 174.609375 178.488281 174.609375 178.042969 C 174.164062 177.597656 163.773438 169.28125 102.597656 120.429688 C 95.175781 114.640625 88.9375 109.59375 88.9375 110.039062 C 88.9375 110.039062 89.382812 124.144531 89.828125 141.515625 C 90.71875 164.679688 91.015625 172.992188 91.460938 173.4375 C 91.90625 173.882812 112.546875 188.285156 137.046875 205.808594 C 161.839844 223.179688 182.183594 237.285156 182.183594 237.285156 C 182.480469 237.730469 181.589844 232.828125 180.847656 226.890625 Z M 152.636719 259.703125 C 166.742188 251.835938 178.324219 245.152344 178.324219 245.152344 C 178.324219 245.152344 157.980469 230.601562 133.628906 213.675781 L 88.9375 182.644531 L 76.167969 189.324219 C 24.351562 216.199219 13.214844 221.992188 13.214844 221.992188 C 13.214844 221.992188 16.925781 224.070312 21.53125 226.148438 C 26.132812 228.226562 51.375 239.808594 77.355469 252.28125 C 103.488281 264.753906 125.316406 274.699219 125.761719 274.253906 C 126.949219 273.808594 138.53125 267.574219 152.636719 259.703125 Z M 477.210938 613.675781 C 519.378906 609.964844 558.722656 593.335938 591.539062 565.71875 C 599.40625 558.738281 612.175781 545.824219 618.859375 537.507812 C 646.625 502.765625 663.105469 462.527344 668.152344 416.644531 C 669.339844 407.144531 669.339844 383.089844 668.597656 373.585938 C 663.996094 329.339844 648.703125 289.101562 623.90625 255.992188 C 616.484375 246.042969 610.246094 239.066406 601.1875 229.859375 C 578.472656 207.886719 552.785156 191.703125 523.832031 181.902344 C 516.851562 179.378906 501.113281 175.21875 499.332031 175.21875 C 498.886719 175.21875 498.441406 175.664062 498.886719 177.300781 L 498.886719 179.378906 L 507.203125 182.347656 C 518.339844 186.058594 525.464844 189.027344 534.96875 193.929688 C 597.476562 224.960938 641.425781 283.757812 653.75 352.503906 C 656.273438 367.054688 656.71875 372.398438 656.71875 393.039062 C 656.71875 414.121094 656.273438 420.359375 653.007812 436.988281 C 640.238281 502.765625 597.179688 559.484375 537.492188 590.21875 C 525.464844 596.453125 518.488281 599.273438 506.460938 603.433594 C 491.167969 608.332031 477.0625 611.746094 461.324219 613.824219 L 455.53125 614.714844 L 464.292969 614.714844 C 467.707031 614.121094 473.941406 613.675781 477.210938 613.675781 Z M 244.097656 697.269531 C 256.125 695.191406 266.519531 693.558594 266.816406 693.113281 C 267.707031 692.667969 318.636719 626.445312 318.1875 626 C 318.1875 626 307.351562 626 294.136719 626.890625 C 273.792969 627.78125 270.527344 627.78125 269.636719 628.523438 C 268.746094 629.414062 260.875 641.292969 228.210938 691.035156 C 224.5 696.378906 221.53125 700.984375 221.53125 700.984375 C 222.273438 700.980469 232.21875 699.347656 244.097656 697.269531 Z M 292.652344 735.875 C 292.652344 735.875 303.042969 721.769531 315.8125 705.289062 C 328.582031 688.363281 338.976562 674.257812 338.976562 673.8125 C 338.976562 672.921875 326.207031 630.753906 325.761719 630.753906 C 325.316406 630.753906 275.277344 696.972656 275.277344 697.417969 C 275.277344 697.863281 278.992188 705.734375 283.148438 714.789062 C 287.304688 723.847656 291.019531 732.609375 291.910156 733.796875 " fill-opacity="1" fill-rule="nonzero"/><path stroke-linecap="butt" transform="matrix(0.470577, 0, 0, 0.470577, 121.666667, 503.311411)" fill="none" stroke-linejoin="miter" d="M 56.233578 62.384148 L 56.233578 34.061218 L 98.701371 34.061218 L 98.701371 135.001086 L 56.233578 135.001086 L 56.233578 102.486163 L 45.608328 102.486163 L 45.608328 135.001086 L 3.140535 135.001086 L 3.140535 34.061218 L 45.608328 34.061218 L 45.608328 62.384148 Z M 178.548459 34.061218 L 178.548459 94.899071 L 218.650475 94.899071 L 218.650475 135.001086 L 137.234502 135.001086 L 137.234502 34.061218 Z M 178.548459 34.061218 " stroke="#004225" stroke-width="21.79471" stroke-opacity="1" stroke-miterlimit="4"/><g fill="#ffb000" fill-opacity="1"><g transform="translate(121.666667, 566.839333)"><g><path d="M 26.46875 -34.171875 L 26.46875 -47.5 L 46.453125 -47.5 L 46.453125 0 L 26.46875 0 L 26.46875 -15.296875 L 21.46875 -15.296875 L 21.46875 0 L 1.484375 0 L 1.484375 -47.5 L 21.46875 -47.5 L 21.46875 -34.171875 Z M 26.46875 -34.171875 "/></g></g></g><g fill="#ffb000" fill-opacity="1"><g transform="translate(184.769837, 566.839333)"><g><path d="M 20.90625 -47.5 L 20.90625 -18.875 L 39.78125 -18.875 L 39.78125 0 L 1.484375 0 L 1.484375 -47.5 Z M 20.90625 -47.5 "/></g></g></g></svg>