<svg xmlns="http://www.w3.org/2000/svg" xmlns:xlink="http://www.w3.org/1999/xlink" width="1000" zoomAndPan="magnify" viewBox="0 0 750 749.999995" height="1000" preserveAspectRatio="xMidYMid meet" version="1.0"><defs><clipPath id="465aecd6d1"><path d="M 0 20.457031 L 750 20.457031 L 750 729.203125 L 0 729.203125 Z M 0 20.457031 " clip-rule="nonzero"/></clipPath><clipPath id="e95f7162b8"><path d="M 260 164 L 339 164 L 339 586.394531 L 260 586.394531 Z M 260 164 " clip-rule="nonzero"/></clipPath><clipPath id="6d4655bb5c"><path d="M 410 164 L 490 164 L 490 586.394531 L 410 586.394531 Z M 410 164 " clip-rule="nonzero"/></clipPath><clipPath id="d679929648"><path d="M 155.433594 430 L 580 430 L 580 471 L 155.433594 471 Z M 155.433594 430 " clip-rule="nonzero"/></clipPath><clipPath id="24718217e2"><path d="M 170 280 L 594.933594 280 L 594.933594 321 L 170 321 Z M 170 280 " clip-rule="nonzero"/></clipPath></defs><g clip-path="url(#465aecd6d1)"><path fill="#004225" d="M 0.453125 374.925781 C 0.453125 180.011719 160.011719 20.457031 354.921875 20.457031 L 395.074219 20.457031 C 589.988281 20.457031 749.546875 180.011719 749.546875 374.925781 C 749.546875 569.839844 589.988281 729.394531 395.074219 729.394531 L 354.921875 729.394531 C 160.011719 729.542969 0.453125 569.988281 0.453125 374.925781 Z M 0.453125 374.925781 " fill-opacity="1" fill-rule="nonzero"/></g><g clip-path="url(#e95f7162b8)"><path fill="#f5f5dc" d="M 280.054688 586.625 C 279.382812 586.625 278.707031 586.589844 278.027344 586.523438 C 267.210938 585.410156 259.335938 575.742188 260.445312 564.925781 L 299.671875 182.0625 C 300.78125 171.246094 310.40625 163.410156 321.261719 164.480469 C 332.078125 165.589844 339.953125 175.257812 338.84375 186.078125 L 299.617188 568.941406 C 298.578125 579.074219 290.027344 586.625 280.054688 586.625 " fill-opacity="1" fill-rule="nonzero"/></g><g clip-path="url(#6d4655bb5c)"><path fill="#f5f5dc" d="M 430.6875 586.625 C 430.015625 586.625 429.339844 586.589844 428.660156 586.523438 C 417.84375 585.410156 409.96875 575.742188 411.078125 564.925781 L 450.304688 182.0625 C 451.414062 171.246094 461.046875 163.410156 471.894531 164.480469 C 482.710938 165.589844 490.582031 175.257812 489.472656 186.078125 L 450.25 568.941406 C 449.210938 579.074219 440.660156 586.625 430.6875 586.625 " fill-opacity="1" fill-rule="nonzero"/></g><g clip-path="url(#d679929648)"><path fill="#f5f5dc" d="M 175.132812 470.875 C 164.296875 470.875 155.488281 462.109375 155.445312 451.257812 C 155.40625 440.386719 164.1875 431.535156 175.058594 431.496094 L 559.925781 430.035156 C 559.953125 430.035156 559.984375 430.035156 560.003906 430.035156 C 570.84375 430.035156 579.648438 438.800781 579.695312 449.652344 C 579.730469 460.523438 570.953125 469.371094 560.082031 469.414062 L 175.210938 470.875 C 175.183594 470.875 175.15625 470.875 175.132812 470.875 " fill-opacity="1" fill-rule="nonzero"/></g><g clip-path="url(#24718217e2)"><path fill="#f5f5dc" d="M 189.921875 320.96875 C 179.085938 320.96875 170.28125 312.203125 170.234375 301.351562 C 170.195312 290.480469 178.976562 281.628906 189.847656 281.589844 L 574.710938 280.125 C 574.738281 280.125 574.765625 280.125 574.789062 280.125 C 585.628906 280.125 594.433594 288.894531 594.476562 299.742188 C 594.515625 310.617188 585.738281 319.464844 574.867188 319.507812 L 190 320.96875 C 189.972656 320.96875 189.945312 320.96875 189.921875 320.96875 " fill-opacity="1" fill-rule="nonzero"/></g></svg>