<svg xmlns="http://www.w3.org/2000/svg" xmlns:xlink="http://www.w3.org/1999/xlink" width="1000" zoomAndPan="magnify" viewBox="0 0 750 749.999995" height="1000" preserveAspectRatio="xMidYMid meet" version="1.0"><defs><clipPath id="1151a8cdbf"><path d="M 12.683594 12.683594 L 739.433594 12.683594 L 739.433594 739.433594 L 12.683594 739.433594 Z M 12.683594 12.683594 " clip-rule="nonzero"/></clipPath><clipPath id="efe382c456"><path d="M 95 154.332031 L 657 154.332031 L 657 611 L 95 611 Z M 95 154.332031 " clip-rule="nonzero"/></clipPath></defs><g clip-path="url(#1151a8cdbf)"><path fill="#ffb000" d="M 603.082031 68.582031 C 647.382812 68.582031 683.433594 104.632812 683.433594 148.929688 L 683.433594 603.082031 C 683.433594 647.382812 647.382812 683.433594 603.082031 683.433594 L 148.929688 683.433594 C 104.632812 683.433594 68.582031 647.382812 68.582031 603.082031 L 68.582031 148.929688 C 68.582031 104.632812 104.632812 68.582031 148.929688 68.582031 L 603.082031 68.582031 M 603.082031 12.683594 L 148.929688 12.683594 C 73.667969 12.683594 12.683594 73.667969 12.683594 148.929688 L 12.683594 603.082031 C 12.683594 678.347656 73.667969 739.328125 148.929688 739.328125 L 603.082031 739.328125 C 678.347656 739.328125 739.328125 678.347656 739.328125 603.082031 L 739.328125 148.929688 C 739.328125 73.667969 678.347656 12.683594 603.082031 12.683594 Z M 603.082031 12.683594 " fill-opacity="1" fill-rule="nonzero"/></g><g clip-path="url(#efe382c456)"><path fill="#ffb000" d="M 95.957031 385.902344 C 128.28125 287.585938 256.601562 325.15625 287.289062 435.125 C 287.289062 435.125 420.410156 180.699219 656.117188 154.359375 C 581.082031 217.136719 465.996094 332.144531 410.496094 414.324219 C 347.457031 507.683594 289.03125 616.652344 256.785156 610.535156 C 231.132812 605.683594 206.191406 453.160156 95.957031 385.929688 Z M 95.957031 385.902344 " fill-opacity="1" fill-rule="evenodd"/></g></svg>