<svg xmlns="http://www.w3.org/2000/svg" xmlns:xlink="http://www.w3.org/1999/xlink" width="500" zoomAndPan="magnify" viewBox="0 0 375 374.999991" height="500" preserveAspectRatio="xMidYMid meet" version="1.0"><defs><clipPath id="84f81b5a27"><path d="M 0 10.230469 L 374.996094 10.230469 L 374.996094 364.980469 L 0 364.980469 Z M 0 10.230469 " clip-rule="nonzero"/></clipPath><clipPath id="d426f1e751"><path d="M 130 82 L 170 82 L 170 293.195312 L 130 293.195312 Z M 130 82 " clip-rule="nonzero"/></clipPath><clipPath id="0ddaa4c760"><path d="M 205 82 L 245 82 L 245 293.195312 L 205 293.195312 Z M 205 82 " clip-rule="nonzero"/></clipPath><clipPath id="91d80fcc6b"><path d="M 77.71875 215 L 290 215 L 290 236 L 77.71875 236 Z M 77.71875 215 " clip-rule="nonzero"/></clipPath><clipPath id="af6c9b6ec0"><path d="M 85 140 L 297.46875 140 L 297.46875 161 L 85 161 Z M 85 140 " clip-rule="nonzero"/></clipPath></defs><g clip-path="url(#84f81b5a27)"><path fill="#004225" d="M 0.226562 187.460938 C 0.226562 90.007812 80.003906 10.230469 177.460938 10.230469 L 197.535156 10.230469 C 294.988281 10.230469 374.765625 90.007812 374.765625 187.460938 C 374.765625 284.917969 294.988281 364.695312 197.535156 364.695312 L 177.460938 364.695312 C 80.003906 364.769531 0.226562 284.992188 0.226562 187.460938 Z M 0.226562 187.460938 " fill-opacity="1" fill-rule="nonzero"/></g><g clip-path="url(#d426f1e751)"><path fill="#f5f5dc" d="M 140.027344 293.3125 C 139.691406 293.3125 139.351562 293.296875 139.015625 293.261719 C 133.605469 292.707031 129.667969 287.871094 130.222656 282.464844 L 149.835938 91.03125 C 150.390625 85.621094 155.203125 81.707031 160.632812 82.242188 C 166.039062 82.796875 169.976562 87.628906 169.421875 93.039062 L 149.808594 284.46875 C 149.289062 289.535156 145.011719 293.3125 140.027344 293.3125 " fill-opacity="1" fill-rule="nonzero"/></g><g clip-path="url(#0ddaa4c760)"><path fill="#f5f5dc" d="M 215.34375 293.3125 C 215.007812 293.3125 214.671875 293.296875 214.332031 293.261719 C 208.921875 292.707031 204.984375 287.871094 205.539062 282.464844 L 225.152344 91.03125 C 225.707031 85.621094 230.523438 81.707031 235.949219 82.242188 C 241.355469 82.796875 245.292969 87.628906 244.738281 93.039062 L 225.125 284.46875 C 224.605469 289.535156 220.328125 293.3125 215.34375 293.3125 " fill-opacity="1" fill-rule="nonzero"/></g><g clip-path="url(#91d80fcc6b)"><path fill="#f5f5dc" d="M 87.566406 235.4375 C 82.148438 235.4375 77.746094 231.054688 77.722656 225.628906 C 77.703125 220.191406 82.09375 215.769531 87.527344 215.75 L 279.964844 215.019531 C 279.976562 215.019531 279.992188 215.019531 280.003906 215.019531 C 285.421875 215.019531 289.824219 219.398438 289.847656 224.824219 C 289.867188 230.261719 285.476562 234.6875 280.039062 234.707031 L 87.605469 235.4375 C 87.59375 235.4375 87.578125 235.4375 87.566406 235.4375 " fill-opacity="1" fill-rule="nonzero"/></g><g clip-path="url(#af6c9b6ec0)"><path fill="#f5f5dc" d="M 94.960938 160.484375 C 89.542969 160.484375 85.140625 156.101562 85.117188 150.675781 C 85.097656 145.238281 89.488281 140.816406 94.921875 140.792969 L 287.355469 140.0625 C 287.371094 140.0625 287.382812 140.0625 287.394531 140.0625 C 292.8125 140.0625 297.214844 144.445312 297.238281 149.871094 C 297.257812 155.308594 292.867188 159.734375 287.433594 159.753906 L 95 160.484375 C 94.988281 160.484375 94.972656 160.484375 94.960938 160.484375 " fill-opacity="1" fill-rule="nonzero"/></g></svg>