<svg xmlns="http://www.w3.org/2000/svg" xmlns:xlink="http://www.w3.org/1999/xlink" width="1000" zoomAndPan="magnify" viewBox="0 0 750 749.999995" height="1000" preserveAspectRatio="xMidYMid meet" version="1.0"><defs><clipPath id="0ac7fe8bbf"><path d="M 45 48 L 708 48 L 708 709.019531 L 45 709.019531 Z M 45 48 " clip-rule="nonzero"/></clipPath></defs><path fill="#ffb000" d="M 605.042969 57.425781 C 592.457031 44.835938 572.402344 44.835938 559.816406 57.425781 L 316.832031 300.40625 C 312.992188 304.035156 310.433594 308.726562 308.726562 313.847656 L 269.046875 446.324219 C 265.632812 457.632812 268.835938 469.789062 277.15625 478.109375 C 283.128906 484.296875 291.445312 487.496094 299.765625 487.496094 C 302.753906 487.496094 305.953125 487.070312 308.941406 486.214844 L 441.417969 446.539062 C 446.539062 444.832031 451.230469 442.269531 454.855469 438.429688 L 697.839844 195.449219 C 703.816406 189.476562 707.226562 181.367188 707.226562 172.835938 C 707.226562 164.304688 703.816406 156.195312 697.839844 150.222656 Z M 605.042969 57.425781 " fill-opacity="1" fill-rule="nonzero"/><g clip-path="url(#0ac7fe8bbf)"><path fill="#ffb000" d="M 675.226562 346.699219 C 657.550781 346.699219 643.226562 361.03125 643.226562 378.699219 L 643.226562 592.027344 C 643.226562 621.445312 619.300781 645.363281 589.894531 645.363281 L 163.234375 645.363281 C 133.828125 645.363281 109.902344 621.445312 109.902344 592.027344 L 109.902344 165.367188 C 109.902344 135.953125 133.828125 112.035156 163.234375 112.035156 L 376.566406 112.035156 C 394.242188 112.035156 408.566406 97.703125 408.566406 80.035156 C 408.566406 62.371094 394.242188 48.039062 376.566406 48.039062 L 163.234375 48.039062 C 98.539062 48.039062 45.902344 100.683594 45.902344 165.367188 L 45.902344 592.027344 C 45.902344 656.714844 98.539062 709.359375 163.234375 709.359375 L 589.894531 709.359375 C 654.59375 709.359375 707.226562 656.714844 707.226562 592.027344 L 707.226562 378.699219 C 707.226562 361.03125 692.90625 346.699219 675.226562 346.699219 Z M 675.226562 346.699219 " fill-opacity="1" fill-rule="nonzero"/></g></svg>