<svg xmlns="http://www.w3.org/2000/svg" xmlns:xlink="http://www.w3.org/1999/xlink" width="1000" zoomAndPan="magnify" viewBox="0 0 750 749.999995" height="1000" preserveAspectRatio="xMidYMid meet" version="1.0"><defs><clipPath id="c43fe370e0"><path d="M 0 20.457031 L 750 20.457031 L 750 729.203125 L 0 729.203125 Z M 0 20.457031 " clip-rule="nonzero"/></clipPath><clipPath id="ac1e6ae26d"><path d="M 137.152344 137.449219 L 612.652344 137.449219 L 612.652344 612.199219 L 137.152344 612.199219 Z M 137.152344 137.449219 " clip-rule="nonzero"/></clipPath></defs><g clip-path="url(#c43fe370e0)"><path fill="#004225" d="M 0.453125 374.925781 C 0.453125 180.011719 160.011719 20.457031 354.921875 20.457031 L 395.074219 20.457031 C 589.988281 20.457031 749.546875 180.011719 749.546875 374.925781 C 749.546875 569.839844 589.988281 729.394531 395.074219 729.394531 L 354.921875 729.394531 C 160.011719 729.542969 0.453125 569.988281 0.453125 374.925781 Z M 0.453125 374.925781 " fill-opacity="1" fill-rule="nonzero"/></g><g clip-path="url(#ac1e6ae26d)"><path fill="#f5f5dc" d="M 374.996094 168.371094 C 261.058594 168.371094 168.371094 261.058594 168.371094 374.996094 C 168.371094 488.933594 261.058594 581.625 374.996094 581.625 C 488.933594 581.625 581.617188 488.933594 581.617188 374.996094 C 581.617188 261.058594 488.933594 168.371094 374.996094 168.371094 Z M 374.996094 612.578125 C 342.929688 612.578125 311.816406 606.300781 282.511719 593.90625 C 254.214844 581.933594 228.8125 564.804688 206.996094 542.996094 C 185.1875 521.179688 168.054688 495.777344 156.082031 467.480469 C 143.699219 438.175781 137.410156 407.058594 137.410156 374.996094 C 137.410156 342.929688 143.699219 311.8125 156.082031 282.511719 C 168.054688 254.210938 185.1875 228.808594 206.996094 206.992188 C 228.8125 185.183594 254.214844 168.054688 282.511719 156.09375 C 311.816406 143.699219 342.929688 137.410156 374.996094 137.410156 C 407.058594 137.410156 438.175781 143.699219 467.480469 156.09375 C 495.777344 168.054688 521.179688 185.183594 542.996094 206.992188 C 564.804688 228.808594 581.933594 254.210938 593.90625 282.511719 C 606.292969 311.8125 612.582031 342.929688 612.582031 374.996094 C 612.582031 407.058594 606.292969 438.175781 593.90625 467.480469 C 581.933594 495.765625 564.804688 521.179688 542.996094 542.996094 C 521.179688 564.804688 495.777344 581.933594 467.480469 593.90625 C 438.175781 606.300781 407.058594 612.578125 374.996094 612.578125 " fill-opacity="1" fill-rule="nonzero"/></g><path fill="#f5f5dc" d="M 380.996094 226.824219 L 368.996094 226.824219 C 368.027344 226.824219 367.230469 226.03125 367.230469 225.0625 L 367.230469 188.183594 C 367.230469 187.21875 368.027344 186.421875 368.996094 186.421875 L 380.996094 186.421875 C 381.964844 186.421875 382.761719 187.21875 382.761719 188.183594 L 382.761719 225.0625 C 382.761719 226.03125 381.964844 226.824219 380.996094 226.824219 " fill-opacity="1" fill-rule="nonzero"/><path fill="#f5f5dc" d="M 380.996094 563.566406 L 368.996094 563.566406 C 368.027344 563.566406 367.230469 562.769531 367.230469 561.804688 L 367.230469 524.925781 C 367.230469 523.957031 368.027344 523.164062 368.996094 523.164062 L 380.996094 523.164062 C 381.964844 523.164062 382.761719 523.957031 382.761719 524.925781 L 382.761719 561.804688 C 382.761719 562.769531 381.964844 563.566406 380.996094 563.566406 " fill-opacity="1" fill-rule="nonzero"/><path fill="#f5f5dc" d="M 484.007812 274.46875 L 475.523438 265.984375 C 474.84375 265.292969 474.84375 264.171875 475.523438 263.492188 L 501.597656 237.417969 C 502.285156 236.726562 503.40625 236.726562 504.097656 237.417969 L 512.570312 245.890625 C 513.261719 246.582031 513.261719 247.703125 512.570312 248.394531 L 486.5 274.46875 C 485.816406 275.148438 484.695312 275.148438 484.007812 274.46875 " fill-opacity="1" fill-rule="nonzero"/><path fill="#f5f5dc" d="M 245.894531 512.570312 L 237.410156 504.097656 C 236.730469 503.40625 236.730469 502.285156 237.410156 501.59375 L 263.484375 475.519531 C 264.175781 474.839844 265.296875 474.839844 265.984375 475.519531 L 274.46875 484.003906 C 275.148438 484.695312 275.148438 485.816406 274.46875 486.496094 L 248.394531 512.570312 C 247.707031 513.261719 246.582031 513.261719 245.894531 512.570312 " fill-opacity="1" fill-rule="nonzero"/><path fill="#f5f5dc" d="M 523.164062 380.996094 L 523.164062 368.992188 C 523.164062 368.027344 523.960938 367.230469 524.929688 367.230469 L 561.804688 367.230469 C 562.773438 367.230469 563.570312 368.027344 563.570312 368.992188 L 563.570312 380.996094 C 563.570312 381.964844 562.773438 382.757812 561.804688 382.757812 L 524.929688 382.757812 C 523.960938 382.757812 523.164062 381.964844 523.164062 380.996094 " fill-opacity="1" fill-rule="nonzero"/><path fill="#f5f5dc" d="M 186.421875 380.996094 L 186.421875 368.992188 C 186.421875 368.027344 187.21875 367.230469 188.1875 367.230469 L 225.0625 367.230469 C 226.03125 367.230469 226.828125 368.027344 226.828125 368.992188 L 226.828125 380.996094 C 226.828125 381.964844 226.03125 382.757812 225.0625 382.757812 L 188.1875 382.757812 C 187.21875 382.757812 186.421875 381.964844 186.421875 380.996094 " fill-opacity="1" fill-rule="nonzero"/><path fill="#f5f5dc" d="M 475.523438 484.003906 L 484.007812 475.519531 C 484.695312 474.839844 485.816406 474.839844 486.5 475.519531 L 512.570312 501.59375 C 513.261719 502.285156 513.261719 503.40625 512.570312 504.097656 L 504.097656 512.570312 C 503.40625 513.261719 502.285156 513.261719 501.597656 512.570312 L 475.523438 486.496094 C 474.84375 485.816406 474.84375 484.695312 475.523438 484.003906 " fill-opacity="1" fill-rule="nonzero"/><path fill="#f5f5dc" d="M 237.410156 245.890625 L 245.894531 237.417969 C 246.582031 236.726562 247.707031 236.726562 248.394531 237.417969 L 274.46875 263.492188 C 275.148438 264.171875 275.148438 265.292969 274.46875 265.984375 L 265.984375 274.46875 C 265.296875 275.148438 264.175781 275.148438 263.484375 274.46875 L 237.410156 248.394531 C 236.730469 247.703125 236.730469 246.582031 237.410156 245.890625 " fill-opacity="1" fill-rule="nonzero"/><path fill="#f5f5dc" d="M 459.601562 439.726562 L 395.070312 375.195312 C 395.070312 375.128906 395.078125 375.0625 395.078125 374.996094 C 395.078125 370.507812 393.601562 366.367188 391.121094 363.023438 L 391.121094 272.0625 C 391.121094 263.195312 383.863281 255.9375 374.996094 255.9375 C 366.128906 255.9375 358.871094 263.195312 358.871094 272.0625 L 358.871094 363.023438 C 356.390625 366.367188 354.914062 370.507812 354.914062 374.996094 C 354.914062 383.679688 360.433594 391.078125 368.160156 393.878906 L 436.804688 462.523438 C 443.074219 468.792969 453.332031 468.792969 459.601562 462.523438 C 465.871094 456.253906 465.871094 445.996094 459.601562 439.726562 " fill-opacity="1" fill-rule="nonzero"/></svg>