<svg xmlns="http://www.w3.org/2000/svg" xmlns:xlink="http://www.w3.org/1999/xlink" width="500" zoomAndPan="magnify" viewBox="0 0 375 374.999991" height="500" preserveAspectRatio="xMidYMid meet" version="1.0"><defs><clipPath id="4166e80d58"><path d="M 136.40625 0 L 238.40625 0 L 238.40625 375 L 136.40625 375 Z M 136.40625 0 " clip-rule="nonzero"/></clipPath></defs><g clip-path="url(#4166e80d58)"><path fill="#004225" d="M 187.632812 136.273438 C 159.359375 136.273438 136.40625 159.191406 136.40625 187.5 C 136.40625 215.808594 159.359375 238.726562 187.632812 238.726562 C 215.90625 238.726562 238.859375 215.808594 238.859375 187.5 C 238.859375 159.191406 215.90625 136.273438 187.632812 136.273438 Z M 187.632812 272.390625 C 159.359375 272.390625 136.40625 295.34375 136.40625 323.617188 C 136.40625 351.890625 159.359375 374.84375 187.632812 374.84375 C 215.90625 374.84375 238.859375 351.890625 238.859375 323.617188 C 238.859375 295.34375 215.90625 272.390625 187.632812 272.390625 Z M 238.859375 51.382812 C 238.859375 79.691406 215.90625 102.609375 187.632812 102.609375 C 159.359375 102.609375 136.40625 79.691406 136.40625 51.382812 C 136.40625 23.109375 159.359375 0.15625 187.632812 0.15625 C 215.90625 0.15625 238.859375 23.109375 238.859375 51.382812 " fill-opacity="1" fill-rule="nonzero"/></g></svg>