<svg xmlns="http://www.w3.org/2000/svg" xmlns:xlink="http://www.w3.org/1999/xlink" width="1000" zoomAndPan="magnify" viewBox="0 0 750 749.999995" height="1000" preserveAspectRatio="xMidYMid meet" version="1.0"><defs><clipPath id="7db3fed766"><path d="M 272.8125 0 L 477.5625 0 L 477.5625 750 L 272.8125 750 Z M 272.8125 0 " clip-rule="nonzero"/></clipPath></defs><g clip-path="url(#7db3fed766)"><path fill="#ffb000" d="M 375.265625 272.546875 C 318.71875 272.546875 272.8125 318.382812 272.8125 375 C 272.8125 431.617188 318.71875 477.453125 375.265625 477.453125 C 431.816406 477.453125 477.71875 431.617188 477.71875 375 C 477.71875 318.382812 431.816406 272.546875 375.265625 272.546875 Z M 375.265625 544.78125 C 318.71875 544.78125 272.8125 590.683594 272.8125 647.234375 C 272.8125 703.78125 318.71875 749.6875 375.265625 749.6875 C 431.816406 749.6875 477.71875 703.78125 477.71875 647.234375 C 477.71875 590.683594 431.816406 544.78125 375.265625 544.78125 Z M 477.71875 102.765625 C 477.71875 159.382812 431.816406 205.21875 375.265625 205.21875 C 318.71875 205.21875 272.8125 159.382812 272.8125 102.765625 C 272.8125 46.21875 318.71875 0.3125 375.265625 0.3125 C 431.816406 0.3125 477.71875 46.21875 477.71875 102.765625 " fill-opacity="1" fill-rule="nonzero"/></g></svg>