<svg xmlns="http://www.w3.org/2000/svg" xmlns:xlink="http://www.w3.org/1999/xlink" width="1000" zoomAndPan="magnify" viewBox="0 0 750 749.999995" height="1000" preserveAspectRatio="xMidYMid meet" version="1.0"><defs><clipPath id="3e46f1c1cb"><path d="M 12.683594 12.683594 L 739.433594 12.683594 L 739.433594 739.433594 L 12.683594 739.433594 Z M 12.683594 12.683594 " clip-rule="nonzero"/></clipPath></defs><g clip-path="url(#3e46f1c1cb)"><path fill="#ffb000" d="M 603.082031 68.582031 C 647.382812 68.582031 683.433594 104.632812 683.433594 148.929688 L 683.433594 603.082031 C 683.433594 647.382812 647.382812 683.433594 603.082031 683.433594 L 148.929688 683.433594 C 104.632812 683.433594 68.582031 647.382812 68.582031 603.082031 L 68.582031 148.929688 C 68.582031 104.632812 104.632812 68.582031 148.929688 68.582031 L 603.082031 68.582031 M 603.082031 12.683594 L 148.929688 12.683594 C 73.667969 12.683594 12.683594 73.667969 12.683594 148.929688 L 12.683594 603.082031 C 12.683594 678.347656 73.667969 739.328125 148.929688 739.328125 L 603.082031 739.328125 C 678.347656 739.328125 739.328125 678.347656 739.328125 603.082031 L 739.328125 148.929688 C 739.328125 73.667969 678.347656 12.683594 603.082031 12.683594 Z M 603.082031 12.683594 " fill-opacity="1" fill-rule="nonzero"/></g></svg>