<svg xmlns="http://www.w3.org/2000/svg" xmlns:xlink="http://www.w3.org/1999/xlink" width="500" zoomAndPan="magnify" viewBox="0 0 375 374.999991" height="500" preserveAspectRatio="xMidYMid meet" version="1.0"><defs><clipPath id="f52db07c35"><path d="M 5 4.925781 L 367.925781 4.925781 L 367.925781 366 L 5 366 Z M 5 4.925781 " clip-rule="nonzero"/></clipPath></defs><g clip-path="url(#f52db07c35)"><path fill="#ffb000" d="M 186.109375 4.515625 C 185.125 4.527344 184.144531 4.589844 183.167969 4.703125 C 182.191406 4.8125 181.222656 4.96875 180.261719 5.175781 C 179.300781 5.382812 178.351562 5.632812 177.417969 5.933594 C 176.480469 6.230469 175.5625 6.574219 174.660156 6.964844 C 173.757812 7.355469 172.875 7.785156 172.015625 8.261719 C 171.15625 8.738281 170.320312 9.253906 169.511719 9.8125 C 168.703125 10.367188 167.921875 10.964844 167.171875 11.597656 C 166.421875 12.234375 165.703125 12.902344 165.019531 13.605469 C 164.335938 14.3125 163.683594 15.046875 163.074219 15.816406 C 162.460938 16.585938 161.886719 17.382812 161.351562 18.207031 C 160.816406 19.03125 160.324219 19.878906 159.875 20.753906 C 159.421875 21.625 159.015625 22.519531 158.652344 23.433594 C 158.289062 24.34375 157.972656 25.273438 157.699219 26.21875 C 157.425781 27.160156 157.203125 28.117188 157.023438 29.082031 C 156.84375 30.050781 156.714844 31.023438 156.632812 32 C 156.546875 32.980469 156.511719 33.960938 156.527344 34.945312 L 156.527344 155.027344 L 36.445312 155.027344 C 35.453125 155.011719 34.464844 155.046875 33.476562 155.132812 C 32.484375 155.214844 31.503906 155.347656 30.527344 155.53125 C 29.554688 155.710938 28.589844 155.941406 27.636719 156.21875 C 26.683594 156.496094 25.746094 156.816406 24.828125 157.1875 C 23.90625 157.558594 23.003906 157.972656 22.125 158.433594 C 21.246094 158.890625 20.390625 159.390625 19.5625 159.9375 C 18.734375 160.480469 17.933594 161.0625 17.160156 161.6875 C 16.386719 162.308594 15.648438 162.96875 14.941406 163.667969 C 14.234375 164.363281 13.566406 165.09375 12.929688 165.855469 C 12.296875 166.621094 11.703125 167.410156 11.148438 168.234375 C 10.589844 169.054688 10.078125 169.902344 9.605469 170.777344 C 9.132812 171.648438 8.707031 172.542969 8.324219 173.457031 C 7.941406 174.375 7.605469 175.304688 7.3125 176.253906 C 7.023438 177.203125 6.78125 178.164062 6.585938 179.136719 C 6.390625 180.109375 6.242188 181.089844 6.144531 182.078125 C 6.046875 183.0625 5.996094 184.054688 5.996094 185.046875 C 5.996094 186.039062 6.046875 187.027344 6.144531 188.015625 C 6.242188 189.003906 6.390625 189.984375 6.585938 190.957031 C 6.78125 191.929688 7.023438 192.890625 7.3125 193.835938 C 7.605469 194.785156 7.941406 195.71875 8.324219 196.632812 C 8.707031 197.550781 9.132812 198.441406 9.605469 199.316406 C 10.078125 200.1875 10.589844 201.035156 11.148438 201.859375 C 11.703125 202.679688 12.296875 203.472656 12.929688 204.234375 C 13.566406 205 14.234375 205.730469 14.941406 206.425781 C 15.648438 207.121094 16.386719 207.78125 17.160156 208.40625 C 17.933594 209.027344 18.734375 209.613281 19.5625 210.15625 C 20.390625 210.699219 21.246094 211.203125 22.125 211.660156 C 23.003906 212.121094 23.90625 212.535156 24.828125 212.90625 C 25.746094 213.273438 26.683594 213.597656 27.636719 213.875 C 28.589844 214.152344 29.554688 214.382812 30.527344 214.5625 C 31.503906 214.746094 32.484375 214.878906 33.476562 214.960938 C 34.464844 215.046875 35.453125 215.082031 36.445312 215.066406 L 156.527344 215.066406 L 156.527344 335.148438 C 156.511719 336.140625 156.546875 337.128906 156.632812 338.117188 C 156.714844 339.109375 156.847656 340.089844 157.03125 341.066406 C 157.210938 342.039062 157.441406 343.003906 157.71875 343.957031 C 157.996094 344.910156 158.320312 345.847656 158.6875 346.765625 C 159.058594 347.6875 159.472656 348.585938 159.933594 349.46875 C 160.390625 350.347656 160.894531 351.203125 161.4375 352.03125 C 161.980469 352.859375 162.566406 353.660156 163.1875 354.433594 C 163.8125 355.207031 164.472656 355.945312 165.167969 356.652344 C 165.863281 357.359375 166.59375 358.027344 167.359375 358.664062 C 168.121094 359.296875 168.914062 359.890625 169.734375 360.445312 C 170.558594 361.003906 171.40625 361.515625 172.277344 361.988281 C 173.152344 362.460938 174.042969 362.886719 174.960938 363.269531 C 175.875 363.652344 176.808594 363.988281 177.753906 364.28125 C 178.703125 364.570312 179.664062 364.8125 180.636719 365.007812 C 181.609375 365.203125 182.589844 365.351562 183.578125 365.449219 C 184.566406 365.546875 185.554688 365.59375 186.546875 365.59375 C 187.539062 365.59375 188.527344 365.546875 189.515625 365.449219 C 190.503906 365.351562 191.484375 365.203125 192.457031 365.007812 C 193.429688 364.8125 194.390625 364.570312 195.339844 364.28125 C 196.289062 363.988281 197.21875 363.652344 198.132812 363.269531 C 199.050781 362.886719 199.945312 362.460938 200.816406 361.988281 C 201.691406 361.515625 202.539062 361.003906 203.359375 360.445312 C 204.179688 359.890625 204.972656 359.296875 205.738281 358.664062 C 206.5 358.027344 207.230469 357.359375 207.925781 356.652344 C 208.625 355.945312 209.28125 355.207031 209.90625 354.433594 C 210.53125 353.660156 211.113281 352.859375 211.65625 352.03125 C 212.199219 351.203125 212.703125 350.347656 213.160156 349.46875 C 213.621094 348.585938 214.035156 347.6875 214.40625 346.765625 C 214.777344 345.847656 215.097656 344.910156 215.375 343.957031 C 215.652344 343.003906 215.882812 342.039062 216.0625 341.066406 C 216.246094 340.089844 216.378906 339.109375 216.460938 338.117188 C 216.546875 337.128906 216.582031 336.140625 216.566406 335.148438 L 216.566406 215.066406 L 336.648438 215.066406 C 337.640625 215.082031 338.632812 215.046875 339.621094 214.960938 C 340.609375 214.878906 341.589844 214.746094 342.566406 214.5625 C 343.542969 214.382812 344.503906 214.152344 345.457031 213.875 C 346.410156 213.597656 347.347656 213.273438 348.269531 212.90625 C 349.1875 212.535156 350.089844 212.121094 350.96875 211.660156 C 351.847656 211.203125 352.703125 210.699219 353.53125 210.15625 C 354.363281 209.613281 355.164062 209.027344 355.933594 208.40625 C 356.707031 207.78125 357.445312 207.121094 358.152344 206.425781 C 358.859375 205.730469 359.527344 205 360.164062 204.234375 C 360.796875 203.472656 361.390625 202.679688 361.949219 201.859375 C 362.503906 201.035156 363.015625 200.1875 363.488281 199.316406 C 363.960938 198.441406 364.386719 197.550781 364.769531 196.632812 C 365.152344 195.71875 365.488281 194.785156 365.78125 193.835938 C 366.070312 192.890625 366.3125 191.929688 366.507812 190.957031 C 366.703125 189.984375 366.851562 189.003906 366.949219 188.015625 C 367.046875 187.027344 367.097656 186.039062 367.097656 185.046875 C 367.097656 184.054688 367.046875 183.0625 366.949219 182.078125 C 366.851562 181.089844 366.703125 180.109375 366.507812 179.136719 C 366.3125 178.164062 366.070312 177.203125 365.78125 176.253906 C 365.488281 175.304688 365.152344 174.375 364.769531 173.457031 C 364.386719 172.542969 363.960938 171.648438 363.488281 170.777344 C 363.015625 169.902344 362.503906 169.054688 361.949219 168.234375 C 361.390625 167.410156 360.796875 166.621094 360.164062 165.855469 C 359.527344 165.09375 358.859375 164.363281 358.152344 163.667969 C 357.445312 162.96875 356.707031 162.308594 355.933594 161.6875 C 355.164062 161.0625 354.363281 160.480469 353.53125 159.9375 C 352.703125 159.390625 351.847656 158.890625 350.96875 158.433594 C 350.089844 157.972656 349.1875 157.558594 348.269531 157.1875 C 347.347656 156.816406 346.410156 156.496094 345.457031 156.21875 C 344.503906 155.941406 343.542969 155.710938 342.566406 155.53125 C 341.589844 155.347656 340.609375 155.214844 339.621094 155.132812 C 338.632812 155.046875 337.640625 155.011719 336.648438 155.027344 L 216.566406 155.027344 L 216.566406 34.945312 C 216.582031 33.945312 216.546875 32.945312 216.457031 31.945312 C 216.371094 30.949219 216.238281 29.960938 216.050781 28.976562 C 215.867188 27.992188 215.632812 27.019531 215.347656 26.058594 C 215.066406 25.097656 214.738281 24.15625 214.359375 23.226562 C 213.984375 22.300781 213.5625 21.394531 213.09375 20.507812 C 212.625 19.625 212.113281 18.765625 211.5625 17.929688 C 211.007812 17.097656 210.414062 16.292969 209.78125 15.515625 C 209.144531 14.742188 208.476562 14 207.765625 13.292969 C 207.058594 12.585938 206.316406 11.917969 205.542969 11.28125 C 204.765625 10.648438 203.960938 10.054688 203.125 9.503906 C 202.292969 8.949219 201.433594 8.441406 200.546875 7.972656 C 199.660156 7.507812 198.753906 7.085938 197.828125 6.710938 C 196.898438 6.332031 195.953125 6.003906 194.992188 5.722656 C 194.035156 5.441406 193.0625 5.207031 192.078125 5.023438 C 191.09375 4.839844 190.101562 4.703125 189.105469 4.621094 C 188.109375 4.535156 187.109375 4.5 186.109375 4.515625 Z M 186.109375 4.515625 " fill-opacity="1" fill-rule="nonzero"/></g></svg>