<svg xmlns="http://www.w3.org/2000/svg" xmlns:xlink="http://www.w3.org/1999/xlink" width="1000" zoomAndPan="magnify" viewBox="0 0 750 749.999995" height="1000" preserveAspectRatio="xMidYMid meet" version="1.0"><defs><clipPath id="b6d266c570"><path d="M 0 20.457031 L 750 20.457031 L 750 729.203125 L 0 729.203125 Z M 0 20.457031 " clip-rule="nonzero"/></clipPath><clipPath id="913880fcda"><path d="M 203.476562 160.597656 L 546.226562 160.597656 L 546.226562 589.597656 L 203.476562 589.597656 Z M 203.476562 160.597656 " clip-rule="nonzero"/></clipPath></defs><g clip-path="url(#b6d266c570)"><path fill="#004225" d="M 0.453125 374.925781 C 0.453125 180.011719 160.011719 20.457031 354.921875 20.457031 L 395.074219 20.457031 C 589.988281 20.457031 749.546875 180.011719 749.546875 374.925781 C 749.546875 569.839844 589.988281 729.394531 395.074219 729.394531 L 354.921875 729.394531 C 160.011719 729.542969 0.453125 569.988281 0.453125 374.925781 Z M 0.453125 374.925781 " fill-opacity="1" fill-rule="nonzero"/></g><g clip-path="url(#913880fcda)"><path fill="#f5f5dc" d="M 217.773438 189.183594 C 217.773438 181.3125 224.191406 174.890625 232.066406 174.890625 L 482.199219 174.890625 L 482.199219 196.332031 C 482.199219 212.105469 495.011719 224.917969 510.785156 224.917969 L 532.226562 224.917969 L 532.226562 560.8125 C 532.226562 568.683594 525.804688 575.105469 517.933594 575.105469 L 232.066406 575.105469 C 224.191406 575.105469 217.773438 568.683594 217.773438 560.8125 Z M 522.121094 210.625 L 510.785156 210.625 C 502.914062 210.625 496.492188 204.203125 496.492188 196.332031 L 496.492188 184.996094 Z M 232.066406 589.398438 L 517.933594 589.398438 C 533.707031 589.398438 546.519531 576.585938 546.519531 560.8125 L 546.519531 223.6875 C 546.519531 220.675781 545.878906 217.796875 544.703125 215.117188 C 544.621094 214.953125 544.539062 214.839844 544.480469 214.699219 C 543.421875 212.4375 542.054688 210.34375 540.238281 208.53125 L 498.585938 166.878906 C 496.773438 165.0625 494.652344 163.667969 492.390625 162.605469 C 492.25 162.550781 492.164062 162.46875 492.027344 162.441406 C 489.347656 161.238281 486.441406 160.597656 483.429688 160.597656 L 232.066406 160.597656 C 216.292969 160.597656 203.480469 173.410156 203.480469 189.183594 L 203.480469 560.8125 C 203.480469 576.585938 216.292969 589.398438 232.066406 589.398438 " fill-opacity="1" fill-rule="nonzero"/></g><path fill="#f5f5dc" d="M 260.652344 260.652344 C 260.652344 256.714844 263.863281 253.503906 267.800781 253.503906 L 310.679688 253.503906 C 313.75 253.503906 316.320312 255.457031 317.324219 258.195312 L 296.386719 279.132812 L 287.144531 269.890625 C 284.355469 267.101562 279.832031 267.101562 277.039062 269.890625 C 274.246094 272.683594 274.246094 277.207031 277.039062 279.996094 L 291.332031 294.289062 C 292.730469 295.6875 294.542969 296.382812 296.386719 296.382812 C 298.226562 296.382812 300.042969 295.6875 301.4375 294.289062 L 317.824219 277.902344 L 317.824219 303.53125 C 317.824219 307.46875 314.617188 310.675781 310.679688 310.675781 L 267.800781 310.675781 C 263.863281 310.675781 260.652344 307.46875 260.652344 303.53125 Z M 267.800781 324.972656 L 310.679688 324.972656 C 322.515625 324.972656 332.121094 315.367188 332.121094 303.53125 L 332.121094 263.609375 L 351.464844 244.265625 C 354.257812 241.472656 354.257812 236.949219 351.464844 234.15625 C 348.675781 231.367188 344.152344 231.367188 341.359375 234.15625 L 327.738281 247.78125 C 323.800781 242.617188 317.660156 239.210938 310.679688 239.210938 L 267.800781 239.210938 C 255.960938 239.210938 246.359375 248.8125 246.359375 260.652344 L 246.359375 303.53125 C 246.359375 315.367188 255.960938 324.972656 267.800781 324.972656 " fill-opacity="1" fill-rule="nonzero"/><path fill="#f5f5dc" d="M 260.652344 360.703125 C 260.652344 356.769531 263.863281 353.558594 267.800781 353.558594 L 310.679688 353.558594 C 314.617188 353.558594 317.824219 356.769531 317.824219 360.703125 L 317.824219 403.585938 C 317.824219 407.519531 314.617188 410.730469 310.679688 410.730469 L 267.800781 410.730469 C 263.863281 410.730469 260.652344 407.519531 260.652344 403.585938 Z M 267.800781 425.023438 L 310.679688 425.023438 C 322.515625 425.023438 332.121094 415.421875 332.121094 403.585938 L 332.121094 360.703125 C 332.121094 348.867188 322.515625 339.265625 310.679688 339.265625 L 267.800781 339.265625 C 255.960938 339.265625 246.359375 348.867188 246.359375 360.703125 L 246.359375 403.585938 C 246.359375 415.421875 255.960938 425.023438 267.800781 425.023438 " fill-opacity="1" fill-rule="nonzero"/><path fill="#f5f5dc" d="M 260.652344 460.757812 C 260.652344 456.820312 263.863281 453.609375 267.800781 453.609375 L 310.679688 453.609375 C 314.617188 453.609375 317.824219 456.820312 317.824219 460.757812 L 317.824219 503.636719 C 317.824219 507.574219 314.617188 510.785156 310.679688 510.785156 L 267.800781 510.785156 C 263.863281 510.785156 260.652344 507.574219 260.652344 503.636719 Z M 267.800781 525.078125 L 310.679688 525.078125 C 322.515625 525.078125 332.121094 515.476562 332.121094 503.636719 L 332.121094 460.757812 C 332.121094 448.921875 322.515625 439.316406 310.679688 439.316406 L 267.800781 439.316406 C 255.960938 439.316406 246.359375 448.921875 246.359375 460.757812 L 246.359375 503.636719 C 246.359375 515.476562 255.960938 525.078125 267.800781 525.078125 " fill-opacity="1" fill-rule="nonzero"/><path fill="#f5f5dc" d="M 375 267.796875 L 496.492188 267.796875 C 500.429688 267.796875 503.640625 264.585938 503.640625 260.652344 C 503.640625 256.714844 500.429688 253.503906 496.492188 253.503906 L 375 253.503906 C 371.0625 253.503906 367.851562 256.714844 367.851562 260.652344 C 367.851562 264.585938 371.0625 267.796875 375 267.796875 " fill-opacity="1" fill-rule="nonzero"/><path fill="#f5f5dc" d="M 375 303.53125 L 446.464844 303.53125 C 450.402344 303.53125 453.613281 300.320312 453.613281 296.382812 C 453.613281 292.449219 450.402344 289.238281 446.464844 289.238281 L 375 289.238281 C 371.0625 289.238281 367.851562 292.449219 367.851562 296.382812 C 367.851562 300.320312 371.0625 303.53125 375 303.53125 " fill-opacity="1" fill-rule="nonzero"/><path fill="#f5f5dc" d="M 375 367.851562 L 496.492188 367.851562 C 500.429688 367.851562 503.640625 364.640625 503.640625 360.703125 C 503.640625 356.769531 500.429688 353.558594 496.492188 353.558594 L 375 353.558594 C 371.0625 353.558594 367.851562 356.769531 367.851562 360.703125 C 367.851562 364.640625 371.0625 367.851562 375 367.851562 " fill-opacity="1" fill-rule="nonzero"/><path fill="#f5f5dc" d="M 375 403.585938 L 446.464844 403.585938 C 450.402344 403.585938 453.613281 400.375 453.613281 396.4375 C 453.613281 392.5 450.402344 389.292969 446.464844 389.292969 L 375 389.292969 C 371.0625 389.292969 367.851562 392.5 367.851562 396.4375 C 367.851562 400.375 371.0625 403.585938 375 403.585938 " fill-opacity="1" fill-rule="nonzero"/><path fill="#f5f5dc" d="M 375 467.90625 L 496.492188 467.90625 C 500.429688 467.90625 503.640625 464.695312 503.640625 460.757812 C 503.640625 456.820312 500.429688 453.609375 496.492188 453.609375 L 375 453.609375 C 371.0625 453.609375 367.851562 456.820312 367.851562 460.757812 C 367.851562 464.695312 371.0625 467.90625 375 467.90625 " fill-opacity="1" fill-rule="nonzero"/><path fill="#f5f5dc" d="M 375 503.636719 L 446.464844 503.636719 C 450.402344 503.636719 453.613281 500.425781 453.613281 496.492188 C 453.613281 492.554688 450.402344 489.34375 446.464844 489.34375 L 375 489.34375 C 371.0625 489.34375 367.851562 492.554688 367.851562 496.492188 C 367.851562 500.425781 371.0625 503.636719 375 503.636719 " fill-opacity="1" fill-rule="nonzero"/></svg>