<svg xmlns="http://www.w3.org/2000/svg" xmlns:xlink="http://www.w3.org/1999/xlink" width="1000" zoomAndPan="magnify" viewBox="0 0 750 749.999995" height="1000" preserveAspectRatio="xMidYMid meet" version="1.0"><defs><clipPath id="bbbf340f09"><path d="M 0 20.457031 L 750 20.457031 L 750 729.203125 L 0 729.203125 Z M 0 20.457031 " clip-rule="nonzero"/></clipPath><clipPath id="3ffa5a0230"><path d="M 176.304688 220.699219 L 573.804688 220.699219 L 573.804688 580.699219 L 176.304688 580.699219 Z M 176.304688 220.699219 " clip-rule="nonzero"/></clipPath></defs><g clip-path="url(#bbbf340f09)"><path fill="#004225" d="M 0.453125 374.925781 C 0.453125 180.011719 160.011719 20.457031 354.921875 20.457031 L 395.074219 20.457031 C 589.988281 20.457031 749.546875 180.011719 749.546875 374.925781 C 749.546875 569.839844 589.988281 729.394531 395.074219 729.394531 L 354.921875 729.394531 C 160.011719 729.542969 0.453125 569.988281 0.453125 374.925781 Z M 0.453125 374.925781 " fill-opacity="1" fill-rule="nonzero"/></g><g clip-path="url(#3ffa5a0230)"><path fill="#f5f5dc" d="M 526.382812 220.835938 L 223.613281 220.835938 C 222.066406 220.835938 220.519531 220.914062 218.980469 221.070312 C 217.4375 221.222656 215.90625 221.449219 214.386719 221.753906 C 212.871094 222.058594 211.371094 222.433594 209.886719 222.886719 C 208.40625 223.335938 206.949219 223.859375 205.519531 224.453125 C 204.089844 225.046875 202.691406 225.707031 201.324219 226.4375 C 199.957031 227.167969 198.632812 227.964844 197.34375 228.824219 C 196.058594 229.6875 194.8125 230.609375 193.617188 231.589844 C 192.421875 232.574219 191.273438 233.613281 190.179688 234.707031 C 189.082031 235.804688 188.042969 236.949219 187.0625 238.148438 C 186.078125 239.34375 185.15625 240.585938 184.296875 241.875 C 183.433594 243.160156 182.640625 244.488281 181.910156 245.855469 C 181.179688 247.21875 180.515625 248.617188 179.921875 250.046875 C 179.328125 251.480469 178.804688 252.933594 178.355469 254.417969 C 177.90625 255.898438 177.527344 257.398438 177.226562 258.917969 C 176.921875 260.4375 176.691406 261.96875 176.539062 263.507812 C 176.386719 265.050781 176.308594 266.59375 176.304688 268.144531 L 176.304688 457.375 C 176.308594 458.921875 176.386719 460.46875 176.539062 462.007812 C 176.691406 463.550781 176.921875 465.078125 177.226562 466.597656 C 177.527344 468.117188 177.90625 469.617188 178.355469 471.101562 C 178.804688 472.582031 179.328125 474.039062 179.921875 475.46875 C 180.515625 476.898438 181.179688 478.296875 181.910156 479.664062 C 182.640625 481.027344 183.433594 482.355469 184.296875 483.644531 C 185.15625 484.929688 186.078125 486.171875 187.0625 487.371094 C 188.042969 488.566406 189.082031 489.714844 190.179688 490.808594 C 191.273438 491.902344 192.421875 492.941406 193.617188 493.925781 C 194.8125 494.910156 196.058594 495.832031 197.34375 496.691406 C 198.632812 497.550781 199.957031 498.347656 201.324219 499.078125 C 202.691406 499.808594 204.089844 500.472656 205.519531 501.066406 C 206.949219 501.660156 208.40625 502.179688 209.886719 502.632812 C 211.371094 503.082031 212.871094 503.460938 214.386719 503.761719 C 215.90625 504.066406 217.4375 504.292969 218.980469 504.449219 C 220.519531 504.601562 222.066406 504.679688 223.613281 504.679688 L 313.5 504.679688 L 367.429688 576.585938 C 367.648438 576.878906 367.886719 577.15625 368.136719 577.421875 C 368.390625 577.6875 368.65625 577.9375 368.9375 578.171875 C 369.21875 578.40625 369.511719 578.625 369.816406 578.824219 C 370.121094 579.027344 370.4375 579.210938 370.765625 579.371094 C 371.09375 579.535156 371.429688 579.679688 371.773438 579.804688 C 372.117188 579.929688 372.46875 580.035156 372.824219 580.121094 C 373.179688 580.203125 373.539062 580.265625 373.902344 580.308594 C 374.265625 580.351562 374.632812 580.371094 374.996094 580.371094 C 375.363281 580.371094 375.730469 580.351562 376.09375 580.308594 C 376.457031 580.265625 376.816406 580.203125 377.171875 580.121094 C 377.527344 580.035156 377.878906 579.929688 378.222656 579.804688 C 378.566406 579.679688 378.902344 579.535156 379.230469 579.371094 C 379.554688 579.210938 379.875 579.027344 380.179688 578.824219 C 380.484375 578.625 380.777344 578.40625 381.058594 578.171875 C 381.339844 577.9375 381.605469 577.6875 381.859375 577.421875 C 382.109375 577.15625 382.347656 576.878906 382.566406 576.585938 L 436.496094 504.679688 L 526.382812 504.679688 C 527.929688 504.679688 529.476562 504.601562 531.015625 504.449219 C 532.558594 504.296875 534.089844 504.066406 535.609375 503.761719 C 537.125 503.460938 538.625 503.082031 540.109375 502.632812 C 541.589844 502.183594 543.046875 501.660156 544.476562 501.066406 C 545.910156 500.472656 547.308594 499.8125 548.671875 499.082031 C 550.039062 498.347656 551.363281 497.554688 552.652344 496.691406 C 553.941406 495.832031 555.183594 494.910156 556.378906 493.925781 C 557.578125 492.945312 558.722656 491.90625 559.820312 490.808594 C 560.914062 489.714844 561.953125 488.570312 562.9375 487.371094 C 563.917969 486.175781 564.839844 484.933594 565.703125 483.644531 C 566.5625 482.355469 567.359375 481.03125 568.089844 479.664062 C 568.820312 478.296875 569.480469 476.898438 570.074219 475.46875 C 570.667969 474.039062 571.191406 472.582031 571.640625 471.101562 C 572.089844 469.617188 572.46875 468.117188 572.773438 466.597656 C 573.074219 465.082031 573.304688 463.550781 573.457031 462.007812 C 573.609375 460.46875 573.6875 458.921875 573.6875 457.375 L 573.6875 268.144531 C 573.6875 266.59375 573.609375 265.050781 573.457031 263.507812 C 573.304688 261.964844 573.074219 260.4375 572.773438 258.917969 C 572.46875 257.398438 572.089844 255.898438 571.640625 254.417969 C 571.191406 252.933594 570.667969 251.476562 570.074219 250.046875 C 569.480469 248.617188 568.820312 247.21875 568.089844 245.851562 C 567.359375 244.488281 566.5625 243.160156 565.703125 241.871094 C 564.839844 240.585938 563.917969 239.34375 562.9375 238.144531 C 561.953125 236.949219 560.914062 235.800781 559.820312 234.707031 C 558.722656 233.609375 557.578125 232.570312 556.378906 231.589844 C 555.183594 230.605469 553.941406 229.683594 552.652344 228.824219 C 551.363281 227.964844 550.039062 227.167969 548.671875 226.4375 C 547.308594 225.707031 545.910156 225.042969 544.476562 224.449219 C 543.046875 223.855469 541.589844 223.335938 540.109375 222.882812 C 538.625 222.433594 537.125 222.054688 535.609375 221.753906 C 534.089844 221.449219 532.558594 221.222656 531.015625 221.066406 C 529.476562 220.914062 527.929688 220.835938 526.382812 220.835938 Z M 554.765625 457.375 C 554.765625 458.300781 554.71875 459.230469 554.625 460.15625 C 554.535156 461.078125 554.398438 461.996094 554.214844 462.910156 C 554.035156 463.820312 553.808594 464.71875 553.535156 465.609375 C 553.265625 466.5 552.953125 467.371094 552.597656 468.230469 C 552.242188 469.089844 551.84375 469.929688 551.40625 470.746094 C 550.96875 471.566406 550.488281 472.363281 549.972656 473.136719 C 549.457031 473.90625 548.902344 474.652344 548.3125 475.371094 C 547.722656 476.089844 547.101562 476.777344 546.445312 477.433594 C 545.785156 478.09375 545.097656 478.714844 544.378906 479.304688 C 543.660156 479.894531 542.917969 480.449219 542.144531 480.964844 C 541.371094 481.480469 540.574219 481.957031 539.757812 482.398438 C 538.9375 482.835938 538.097656 483.234375 537.238281 483.589844 C 536.378906 483.945312 535.507812 484.257812 534.617188 484.527344 C 533.730469 484.800781 532.828125 485.023438 531.917969 485.207031 C 531.003906 485.390625 530.085938 485.527344 529.164062 485.617188 C 528.238281 485.710938 527.3125 485.757812 526.382812 485.757812 L 431.765625 485.757812 C 430.277344 485.757812 428.863281 486.09375 427.53125 486.757812 C 426.199219 487.425781 425.085938 488.355469 424.191406 489.546875 L 374.996094 555.140625 L 325.796875 489.546875 C 324.902344 488.355469 323.792969 487.425781 322.460938 486.757812 C 321.128906 486.089844 319.71875 485.757812 318.230469 485.757812 L 223.613281 485.757812 C 222.683594 485.757812 221.757812 485.710938 220.832031 485.617188 C 219.90625 485.527344 218.988281 485.390625 218.078125 485.207031 C 217.167969 485.023438 216.265625 484.800781 215.378906 484.527344 C 214.488281 484.257812 213.613281 483.945312 212.757812 483.589844 C 211.898438 483.234375 211.058594 482.835938 210.238281 482.398438 C 209.421875 481.957031 208.625 481.480469 207.851562 480.964844 C 207.078125 480.449219 206.332031 479.894531 205.617188 479.304688 C 204.898438 478.714844 204.210938 478.09375 203.550781 477.433594 C 202.894531 476.777344 202.273438 476.089844 201.683594 475.371094 C 201.09375 474.652344 200.539062 473.90625 200.023438 473.136719 C 199.507812 472.363281 199.027344 471.566406 198.589844 470.746094 C 198.152344 469.929688 197.753906 469.089844 197.398438 468.230469 C 197.042969 467.371094 196.730469 466.5 196.457031 465.609375 C 196.1875 464.71875 195.960938 463.820312 195.78125 462.910156 C 195.597656 461.996094 195.460938 461.078125 195.367188 460.15625 C 195.277344 459.230469 195.230469 458.300781 195.230469 457.375 L 195.230469 268.144531 C 195.230469 267.214844 195.277344 266.285156 195.367188 265.363281 C 195.460938 264.4375 195.597656 263.519531 195.78125 262.609375 C 195.960938 261.695312 196.1875 260.796875 196.457031 259.90625 C 196.730469 259.019531 197.042969 258.144531 197.398438 257.285156 C 197.753906 256.425781 198.152344 255.589844 198.589844 254.769531 C 199.027344 253.949219 199.507812 253.152344 200.023438 252.382812 C 200.539062 251.609375 201.09375 250.863281 201.683594 250.144531 C 202.273438 249.425781 202.894531 248.738281 203.550781 248.082031 C 204.210938 247.425781 204.898438 246.800781 205.617188 246.210938 C 206.332031 245.621094 207.078125 245.070312 207.851562 244.550781 C 208.625 244.035156 209.421875 243.558594 210.238281 243.121094 C 211.058594 242.679688 211.898438 242.285156 212.757812 241.929688 C 213.613281 241.570312 214.488281 241.257812 215.378906 240.988281 C 216.265625 240.71875 217.167969 240.492188 218.078125 240.308594 C 218.988281 240.128906 219.90625 239.992188 220.832031 239.898438 C 221.757812 239.804688 222.683594 239.761719 223.613281 239.757812 L 526.382812 239.757812 C 527.3125 239.761719 528.238281 239.804688 529.164062 239.898438 C 530.085938 239.992188 531.003906 240.128906 531.917969 240.308594 C 532.828125 240.492188 533.730469 240.71875 534.617188 240.988281 C 535.507812 241.257812 536.378906 241.570312 537.238281 241.929688 C 538.097656 242.285156 538.9375 242.679688 539.757812 243.121094 C 540.574219 243.558594 541.371094 244.035156 542.144531 244.550781 C 542.917969 245.070312 543.660156 245.621094 544.378906 246.210938 C 545.097656 246.800781 545.785156 247.425781 546.445312 248.082031 C 547.101562 248.738281 547.722656 249.425781 548.3125 250.144531 C 548.902344 250.863281 549.457031 251.609375 549.972656 252.382812 C 550.488281 253.152344 550.96875 253.949219 551.40625 254.769531 C 551.84375 255.589844 552.242188 256.425781 552.597656 257.285156 C 552.953125 258.144531 553.265625 259.019531 553.535156 259.90625 C 553.808594 260.796875 554.035156 261.695312 554.214844 262.609375 C 554.398438 263.519531 554.535156 264.4375 554.625 265.363281 C 554.71875 266.285156 554.765625 267.214844 554.765625 268.144531 Z M 497.996094 305.988281 C 497.996094 306.609375 497.9375 307.226562 497.816406 307.835938 C 497.695312 308.445312 497.515625 309.035156 497.277344 309.609375 C 497.039062 310.183594 496.75 310.730469 496.40625 311.246094 C 496.058594 311.765625 495.667969 312.242188 495.226562 312.679688 C 494.789062 313.121094 494.308594 313.511719 493.792969 313.859375 C 493.277344 314.203125 492.730469 314.496094 492.15625 314.730469 C 491.582031 314.96875 490.992188 315.148438 490.382812 315.269531 C 489.773438 315.390625 489.15625 315.453125 488.535156 315.449219 L 261.460938 315.449219 C 260.839844 315.449219 260.222656 315.390625 259.613281 315.269531 C 259.003906 315.148438 258.414062 314.96875 257.839844 314.730469 C 257.265625 314.492188 256.71875 314.203125 256.203125 313.855469 C 255.6875 313.511719 255.207031 313.117188 254.769531 312.679688 C 254.332031 312.242188 253.9375 311.761719 253.59375 311.246094 C 253.246094 310.730469 252.957031 310.183594 252.71875 309.609375 C 252.480469 309.035156 252.300781 308.445312 252.179688 307.835938 C 252.058594 307.226562 252 306.609375 252 305.988281 C 252 305.367188 252.058594 304.753906 252.179688 304.144531 C 252.300781 303.535156 252.480469 302.941406 252.71875 302.367188 C 252.957031 301.792969 253.246094 301.25 253.59375 300.734375 C 253.9375 300.214844 254.332031 299.738281 254.769531 299.300781 C 255.207031 298.859375 255.6875 298.46875 256.203125 298.121094 C 256.71875 297.777344 257.265625 297.484375 257.839844 297.25 C 258.414062 297.011719 259.003906 296.832031 259.613281 296.710938 C 260.222656 296.589844 260.839844 296.527344 261.460938 296.527344 L 488.535156 296.527344 C 489.15625 296.527344 489.773438 296.585938 490.382812 296.707031 C 490.992188 296.828125 491.582031 297.007812 492.15625 297.246094 C 492.730469 297.484375 493.277344 297.777344 493.792969 298.121094 C 494.308594 298.464844 494.789062 298.859375 495.226562 299.296875 C 495.667969 299.738281 496.058594 300.214844 496.40625 300.730469 C 496.75 301.25 497.039062 301.792969 497.277344 302.367188 C 497.515625 302.941406 497.695312 303.535156 497.816406 304.144531 C 497.9375 304.753906 497.996094 305.367188 497.996094 305.988281 Z M 497.996094 362.757812 C 497.996094 363.378906 497.9375 363.996094 497.816406 364.605469 C 497.695312 365.214844 497.515625 365.804688 497.277344 366.378906 C 497.039062 366.953125 496.75 367.5 496.40625 368.015625 C 496.058594 368.53125 495.667969 369.011719 495.226562 369.449219 C 494.789062 369.890625 494.308594 370.28125 493.792969 370.628906 C 493.277344 370.972656 492.730469 371.261719 492.15625 371.5 C 491.582031 371.738281 490.992188 371.917969 490.382812 372.039062 C 489.773438 372.160156 489.15625 372.21875 488.535156 372.21875 L 261.460938 372.21875 C 260.839844 372.21875 260.222656 372.160156 259.613281 372.039062 C 259.003906 371.917969 258.414062 371.738281 257.839844 371.5 C 257.265625 371.261719 256.71875 370.96875 256.203125 370.625 C 255.6875 370.28125 255.207031 369.886719 254.769531 369.449219 C 254.332031 369.007812 253.9375 368.53125 253.59375 368.015625 C 253.246094 367.5 252.957031 366.953125 252.71875 366.378906 C 252.480469 365.804688 252.300781 365.214844 252.179688 364.605469 C 252.058594 363.996094 252 363.378906 252 362.757812 C 252 362.136719 252.058594 361.523438 252.179688 360.914062 C 252.300781 360.304688 252.480469 359.710938 252.71875 359.136719 C 252.957031 358.5625 253.246094 358.019531 253.59375 357.5 C 253.9375 356.984375 254.332031 356.507812 254.769531 356.066406 C 255.207031 355.628906 255.6875 355.238281 256.203125 354.890625 C 256.71875 354.546875 257.265625 354.253906 257.839844 354.015625 C 258.414062 353.78125 259.003906 353.601562 259.613281 353.480469 C 260.222656 353.359375 260.839844 353.296875 261.460938 353.296875 L 488.535156 353.296875 C 489.15625 353.296875 489.773438 353.355469 490.382812 353.476562 C 490.992188 353.597656 491.582031 353.777344 492.15625 354.015625 C 492.730469 354.253906 493.277344 354.542969 493.792969 354.890625 C 494.308594 355.234375 494.789062 355.628906 495.226562 356.066406 C 495.667969 356.507812 496.058594 356.984375 496.40625 357.5 C 496.75 358.015625 497.039062 358.5625 497.277344 359.136719 C 497.515625 359.710938 497.695312 360.300781 497.816406 360.914062 C 497.9375 361.523438 497.996094 362.136719 497.996094 362.757812 Z M 497.996094 419.527344 C 497.996094 420.148438 497.9375 420.765625 497.816406 421.375 C 497.695312 421.984375 497.515625 422.574219 497.277344 423.148438 C 497.039062 423.722656 496.75 424.269531 496.40625 424.785156 C 496.058594 425.300781 495.667969 425.78125 495.226562 426.21875 C 494.789062 426.660156 494.308594 427.050781 493.792969 427.394531 C 493.277344 427.742188 492.730469 428.03125 492.15625 428.269531 C 491.582031 428.507812 490.992188 428.6875 490.382812 428.808594 C 489.773438 428.929688 489.15625 428.988281 488.535156 428.988281 L 261.460938 428.988281 C 260.839844 428.988281 260.222656 428.929688 259.613281 428.808594 C 259.003906 428.6875 258.414062 428.507812 257.839844 428.269531 C 257.265625 428.03125 256.71875 427.738281 256.203125 427.394531 C 255.6875 427.050781 255.207031 426.65625 254.769531 426.21875 C 254.332031 425.777344 253.9375 425.300781 253.59375 424.785156 C 253.246094 424.265625 252.957031 423.722656 252.71875 423.148438 C 252.480469 422.574219 252.300781 421.984375 252.179688 421.375 C 252.058594 420.765625 252 420.148438 252 419.527344 C 252 418.90625 252.058594 418.289062 252.179688 417.679688 C 252.300781 417.070312 252.480469 416.480469 252.71875 415.90625 C 252.957031 415.332031 253.246094 414.789062 253.59375 414.269531 C 253.9375 413.753906 254.332031 413.277344 254.769531 412.835938 C 255.207031 412.398438 255.6875 412.003906 256.203125 411.660156 C 256.71875 411.316406 257.265625 411.023438 257.839844 410.785156 C 258.414062 410.546875 259.003906 410.367188 259.613281 410.246094 C 260.222656 410.125 260.839844 410.066406 261.460938 410.066406 L 488.535156 410.066406 C 489.15625 410.066406 489.773438 410.125 490.382812 410.246094 C 490.992188 410.367188 491.582031 410.546875 492.15625 410.785156 C 492.730469 411.023438 493.277344 411.3125 493.792969 411.660156 C 494.308594 412.003906 494.789062 412.394531 495.226562 412.835938 C 495.667969 413.273438 496.058594 413.753906 496.40625 414.269531 C 496.75 414.785156 497.039062 415.332031 497.277344 415.90625 C 497.515625 416.480469 497.695312 417.070312 497.816406 417.679688 C 497.9375 418.289062 497.996094 418.90625 497.996094 419.527344 Z M 497.996094 419.527344 " fill-opacity="1" fill-rule="nonzero"/></g></svg>