<svg xmlns="http://www.w3.org/2000/svg" xmlns:xlink="http://www.w3.org/1999/xlink" width="1000" zoomAndPan="magnify" viewBox="0 0 750 749.999995" height="1000" preserveAspectRatio="xMidYMid meet" version="1.0"><defs><clipPath id="274cfda563"><path d="M 0 20.457031 L 750 20.457031 L 750 729.203125 L 0 729.203125 Z M 0 20.457031 " clip-rule="nonzero"/></clipPath><clipPath id="64110efd4d"><path d="M 182 145.101562 L 568 145.101562 L 568 586.101562 L 182 586.101562 Z M 182 145.101562 " clip-rule="nonzero"/></clipPath></defs><g clip-path="url(#274cfda563)"><path fill="#00bf63" d="M 0.453125 374.925781 C 0.453125 180.011719 160.011719 20.457031 354.921875 20.457031 L 395.074219 20.457031 C 589.988281 20.457031 749.546875 180.011719 749.546875 374.925781 C 749.546875 569.839844 589.988281 729.394531 395.074219 729.394531 L 354.921875 729.394531 C 160.011719 729.542969 0.453125 569.988281 0.453125 374.925781 Z M 0.453125 374.925781 " fill-opacity="1" fill-rule="nonzero"/></g><g clip-path="url(#64110efd4d)"><path fill="#f5f5dc" d="M 195.824219 207.015625 L 195.824219 579.199219 C 195.824219 582.992188 198.914062 586.078125 202.703125 586.078125 L 230.308594 586.078125 C 234.101562 586.078125 237.1875 582.992188 237.1875 579.199219 L 237.1875 460.574219 C 258.269531 472.304688 279.257812 476.804688 300.074219 476.804688 C 333.058594 476.804688 365.777344 465.691406 397.882812 454.753906 C 452.914062 436.058594 504.863281 418.332031 557.160156 453.960938 C 559.277344 455.371094 562.011719 455.546875 564.21875 454.3125 C 566.511719 453.078125 567.921875 450.785156 567.921875 448.230469 L 567.921875 213.980469 C 567.921875 211.6875 566.773438 209.570312 564.921875 208.25 C 506.980469 168.914062 449.210938 188.492188 393.472656 207.457031 C 339.496094 225.800781 288.519531 243 237.1875 210.101562 L 237.1875 206.925781 C 245.746094 200.488281 250.949219 190.257812 250.949219 179.496094 C 250.949219 160.535156 235.515625 145.101562 216.550781 145.101562 C 197.589844 145.101562 182.066406 160.535156 182.066406 179.585938 C 182.066406 190.34375 187.269531 200.488281 195.824219 207.015625 Z M 397.882812 220.507812 C 451.855469 202.164062 502.832031 184.789062 554.164062 217.6875 L 554.164062 435.882812 C 499.835938 405.542969 445.859375 423.886719 393.472656 441.703125 C 339.496094 460.046875 288.519531 477.421875 237.1875 444.523438 L 237.1875 226.328125 C 291.519531 256.667969 345.582031 238.324219 397.882812 220.507812 Z M 216.550781 158.859375 C 227.929688 158.859375 237.1875 168.121094 237.1875 179.496094 C 237.1875 186.816406 233.308594 193.519531 226.871094 197.3125 C 224.753906 198.546875 223.429688 200.839844 223.429688 203.308594 L 223.429688 572.230469 L 209.671875 572.230469 L 209.671875 203.308594 C 209.671875 200.839844 208.347656 198.546875 206.234375 197.3125 C 199.707031 193.519531 195.824219 186.90625 195.824219 179.585938 C 195.824219 168.121094 205.085938 158.859375 216.550781 158.859375 Z M 216.550781 158.859375 " fill-opacity="1" fill-rule="nonzero"/></g></svg>