<svg xmlns="http://www.w3.org/2000/svg" xmlns:xlink="http://www.w3.org/1999/xlink" width="1000" zoomAndPan="magnify" viewBox="0 0 750 749.999995" height="1000" preserveAspectRatio="xMidYMid meet" version="1.0"><defs><clipPath id="0f66c1b40d"><path d="M 87.9375 46.929688 L 662.4375 46.929688 L 662.4375 210 L 87.9375 210 Z M 87.9375 46.929688 " clip-rule="nonzero"/></clipPath><clipPath id="e602291884"><path d="M 128 252 L 622 252 L 622 703.179688 L 128 703.179688 Z M 128 252 " clip-rule="nonzero"/></clipPath></defs><g clip-path="url(#0f66c1b40d)"><path fill="#f26869" d="M 641.554688 127.40625 L 498.023438 127.40625 L 498.023438 67.433594 C 498.023438 56.15625 488.796875 46.929688 477.519531 46.929688 L 272.480469 46.929688 C 261.203125 46.929688 251.976562 56.15625 251.976562 67.433594 L 251.976562 127.40625 L 108.445312 127.40625 C 97.167969 127.40625 87.941406 136.632812 87.941406 147.910156 L 87.941406 188.917969 C 87.941406 200.195312 97.167969 209.425781 108.445312 209.425781 L 641.554688 209.425781 C 652.832031 209.425781 662.058594 200.195312 662.058594 188.917969 L 662.058594 147.910156 C 662.058594 136.632812 652.832031 127.40625 641.554688 127.40625 Z M 641.554688 127.40625 " fill-opacity="1" fill-rule="nonzero"/></g><g clip-path="url(#e602291884)"><path fill="#f26869" d="M 178.160156 685.121094 C 179.183594 695.371094 187.898438 703.0625 198.664062 703.0625 L 551.847656 703.0625 C 562.101562 703.0625 570.816406 695.371094 572.351562 685.121094 L 621.5625 252.484375 L 128.949219 252.484375 Z M 457.015625 618.480469 L 492.898438 331.9375 C 494.4375 320.660156 504.6875 312.96875 515.964844 313.996094 C 527.242188 315.53125 534.933594 325.785156 533.90625 337.0625 L 498.023438 623.609375 C 496.488281 633.859375 487.773438 641.550781 477.519531 641.550781 C 476.496094 641.550781 475.984375 641.550781 474.957031 641.550781 C 463.679688 640.011719 455.992188 629.757812 457.015625 618.480469 Z M 354.496094 334.5 C 354.496094 323.222656 363.722656 313.996094 375 313.996094 C 386.277344 313.996094 395.503906 323.222656 395.503906 334.5 L 395.503906 621.042969 C 395.503906 632.320312 386.277344 641.550781 375 641.550781 C 363.722656 641.550781 354.496094 632.320312 354.496094 621.042969 Z M 234.035156 313.996094 C 245.3125 312.457031 255.5625 320.660156 257.101562 331.9375 L 292.984375 618.480469 C 294.519531 629.757812 286.320312 640.011719 275.042969 641.550781 C 274.015625 641.550781 273.503906 641.550781 272.480469 641.550781 C 262.226562 641.550781 253.511719 633.859375 251.976562 623.609375 L 216.09375 337.0625 C 215.066406 325.785156 222.757812 315.53125 234.035156 313.996094 Z M 234.035156 313.996094 " fill-opacity="1" fill-rule="nonzero"/></g></svg>