<svg xmlns="http://www.w3.org/2000/svg" xmlns:xlink="http://www.w3.org/1999/xlink" width="1000" zoomAndPan="magnify" viewBox="0 0 750 749.999995" height="1000" preserveAspectRatio="xMidYMid meet" version="1.0"><path fill="#004225" d="M 374.894531 -0.0703125 C 581.964844 -0.0703125 749.820312 167.789062 749.820312 374.859375 C 749.820312 581.925781 581.964844 749.785156 374.894531 749.785156 C 167.824219 749.785156 -0.0351562 581.925781 -0.0351562 374.855469 C -0.0351562 167.789062 167.824219 -0.0703125 374.894531 -0.0703125 Z M 276.257812 322.527344 C 275.6875 284.992188 361.597656 264.390625 400.558594 274.691406 C 499.300781 300.820312 356.355469 530.5625 381.09375 564.53125 C 394.855469 583.425781 457.273438 568.523438 457.273438 585.707031 C 457.273438 602.886719 414.886719 647.550781 342.703125 632.6875 C 270.519531 617.789062 290.019531 567.382812 299.75 526.710938 C 309.480469 486.039062 351.296875 373.753906 351.296875 354.289062 C 351.296875 293.191406 275.296875 338.605469 276.222656 322.492188 Z M 417.0625 113.996094 C 448.21875 113.996094 473.492188 139.269531 473.492188 170.425781 C 473.492188 201.582031 448.21875 226.855469 417.0625 226.855469 C 385.90625 226.855469 360.632812 201.582031 360.632812 170.425781 C 360.632812 139.269531 385.90625 113.996094 417.0625 113.996094 Z M 417.0625 113.996094 " fill-opacity="1" fill-rule="evenodd"/></svg>