<svg xmlns="http://www.w3.org/2000/svg" xmlns:xlink="http://www.w3.org/1999/xlink" width="1000" zoomAndPan="magnify" viewBox="0 0 750 749.999995" height="1000" preserveAspectRatio="xMidYMid meet" version="1.0"><defs><clipPath id="a4249d373c"><path d="M 0 20.457031 L 750 20.457031 L 750 729.203125 L 0 729.203125 Z M 0 20.457031 " clip-rule="nonzero"/></clipPath><clipPath id="7d25a4f0a5"><path d="M 107.390625 95.453125 L 670 95.453125 L 670 609.953125 L 107.390625 609.953125 Z M 107.390625 95.453125 " clip-rule="nonzero"/></clipPath></defs><g clip-path="url(#a4249d373c)"><path fill="#004225" d="M 0.453125 374.925781 C 0.453125 180.011719 160.011719 20.457031 354.921875 20.457031 L 395.074219 20.457031 C 589.988281 20.457031 749.546875 180.011719 749.546875 374.925781 C 749.546875 569.839844 589.988281 729.394531 395.074219 729.394531 L 354.921875 729.394531 C 160.011719 729.542969 0.453125 569.988281 0.453125 374.925781 Z M 0.453125 374.925781 " fill-opacity="1" fill-rule="nonzero"/></g><g clip-path="url(#7d25a4f0a5)"><path fill="#f5f5dc" d="M 615.148438 155.300781 C 600.628906 155.300781 586.953125 160.917969 576.746094 171.128906 L 560.914062 186.957031 C 511.835938 128.605469 440.742188 95.261719 364.21875 95.261719 C 222.597656 95.261719 107.390625 210.46875 107.390625 352.183594 C 107.390625 493.898438 222.597656 609.105469 364.21875 609.105469 C 505.839844 609.105469 621.140625 493.898438 621.140625 352.183594 C 621.140625 330.640625 618.332031 309.191406 612.992188 288.492188 L 653.550781 247.933594 C 674.625 226.765625 674.625 192.296875 653.550781 171.128906 C 643.246094 160.917969 629.664062 155.300781 615.148438 155.300781 Z M 364.21875 590.375 C 232.902344 590.375 126.121094 483.5 126.121094 352.183594 C 126.121094 220.863281 232.902344 113.992188 364.21875 113.992188 C 435.683594 113.992188 502.09375 145.277344 547.707031 200.164062 L 402.527344 345.253906 L 347.359375 290.175781 C 326.285156 269.007812 291.910156 269.101562 270.742188 290.175781 C 260.34375 300.574219 254.632812 314.34375 254.722656 328.859375 C 254.722656 343.285156 260.4375 356.773438 270.742188 366.890625 L 364.21875 460.554688 C 374.617188 470.761719 388.195312 476.476562 402.527344 476.476562 C 416.765625 476.476562 430.441406 470.855469 441.117188 460.460938 L 597.539062 304.039062 C 600.722656 319.867188 602.410156 335.980469 602.410156 352.183594 C 602.410156 483.5 495.535156 590.375 364.21875 590.375 Z M 364.21875 590.375 " fill-opacity="1" fill-rule="nonzero"/></g></svg>