<svg xmlns="http://www.w3.org/2000/svg" xmlns:xlink="http://www.w3.org/1999/xlink" width="1000" zoomAndPan="magnify" viewBox="0 0 750 749.999995" height="1000" preserveAspectRatio="xMidYMid meet" version="1.0"><path fill="#ffb000" d="M 722.683594 433.652344 C 737.398438 433.652344 749.4375 421.613281 749.4375 406.898438 L 749.4375 342.207031 C 749.4375 327.492188 737.398438 315.453125 722.683594 315.453125 L 694.90625 315.453125 C 680.191406 315.453125 664.621094 303.941406 660.285156 289.878906 L 636.582031 232.332031 C 629.625 219.363281 632.445312 200.242188 642.84375 189.84375 L 662.507812 170.179688 C 672.90625 159.773438 672.914062 142.75 662.507812 132.34375 L 616.765625 86.601562 C 606.359375 76.195312 589.335938 76.195312 578.925781 86.601562 L 559.261719 106.265625 C 548.855469 116.671875 529.726562 119.484375 516.769531 112.519531 L 459.222656 88.824219 C 445.15625 84.496094 433.652344 68.917969 433.652344 54.203125 L 433.652344 26.425781 C 433.652344 11.710938 421.613281 -0.328125 406.898438 -0.328125 L 342.207031 -0.328125 C 327.496094 -0.328125 315.453125 11.710938 315.453125 26.425781 L 315.453125 54.203125 C 315.453125 68.917969 303.941406 84.496094 289.886719 88.824219 L 232.339844 112.519531 C 219.371094 119.484375 200.253906 116.664062 189.855469 106.257812 L 170.191406 86.59375 C 159.78125 76.1875 142.757812 76.1875 132.351562 86.59375 L 86.613281 132.332031 C 76.203125 142.742188 76.203125 159.765625 86.613281 170.171875 L 106.285156 189.835938 C 116.691406 200.242188 119.5 219.363281 112.542969 232.332031 L 88.839844 289.878906 C 84.515625 303.941406 68.9375 315.445312 54.222656 315.445312 L 26.449219 315.445312 C 11.734375 315.445312 -0.304688 327.484375 -0.304688 342.199219 L -0.304688 406.898438 C -0.304688 421.613281 11.734375 433.652344 26.449219 433.652344 L 54.222656 433.652344 C 68.9375 433.652344 84.515625 445.15625 88.839844 459.222656 L 112.554688 516.777344 C 119.519531 529.734375 116.699219 548.863281 106.292969 559.261719 L 86.621094 578.9375 C 76.214844 589.335938 76.214844 606.359375 86.621094 616.765625 L 132.351562 662.507812 C 142.757812 672.914062 159.78125 672.902344 170.191406 662.507812 L 189.863281 642.832031 C 200.269531 632.433594 219.390625 629.617188 232.347656 636.582031 L 289.894531 660.285156 C 303.960938 664.609375 315.464844 680.179688 315.464844 694.90625 L 315.464844 722.683594 C 315.464844 737.398438 327.503906 749.4375 342.21875 749.4375 L 406.910156 749.4375 C 421.625 749.4375 433.664062 737.398438 433.664062 722.683594 L 433.664062 694.894531 C 433.664062 680.179688 445.167969 664.609375 459.230469 660.277344 L 516.777344 636.582031 C 529.734375 629.617188 548.863281 632.425781 559.261719 642.832031 L 578.945312 662.507812 C 589.34375 672.914062 606.375 672.90625 616.773438 662.507812 L 662.515625 616.765625 C 672.914062 606.367188 672.921875 589.335938 662.515625 578.925781 L 642.851562 559.261719 C 632.445312 548.855469 629.632812 529.726562 636.589844 516.769531 L 660.285156 459.222656 C 664.609375 445.15625 680.191406 433.652344 694.914062 433.652344 Z M 374.554688 528.78125 C 289.378906 528.78125 220.328125 459.730469 220.328125 374.554688 C 220.328125 289.371094 289.378906 220.316406 374.554688 220.316406 C 459.730469 220.316406 528.789062 289.371094 528.789062 374.554688 C 528.789062 459.730469 459.730469 528.78125 374.554688 528.78125 Z M 374.554688 528.78125 " fill-opacity="1" fill-rule="nonzero"/></svg>